<svg width="48" height="48" viewBox="0 0 48 48" fill="none" xmlns="http://www.w3.org/2000/svg">
<rect width="48" height="48" rx="8" fill="#EFF2F7"/>
<path fill-rule="evenodd" clip-rule="evenodd" d="M18.3712 16.3148C19.8693 14.8318 21.8921 13.9999 24 14C26.1079 13.9999 28.1307 14.8318 29.6288 16.3148C31.1268 17.7978 31.9789 19.8122 32 21.92C32 27.4 25 33.5 24.65 33.76C24.4689 33.9149 24.2384 34.0001 24 34.0001C23.7616 34.0001 23.5311 33.9149 23.35 33.76L23.3484 33.7586C23.0253 33.4787 16 27.3904 16 21.92C16.0211 19.8122 16.8732 17.7978 18.3712 16.3148ZM22.0555 24.4101C22.6311 24.7947 23.3078 25 24 25C24.9283 25 25.8185 24.6313 26.4749 23.9749C27.1313 23.3185 27.5 22.4283 27.5 21.5C27.5 20.8078 27.2947 20.1311 26.9101 19.5555C26.5256 18.9799 25.9789 18.5313 25.3394 18.2664C24.6999 18.0015 23.9961 17.9322 23.3172 18.0673C22.6382 18.2023 22.0146 18.5356 21.5251 19.0251C21.0356 19.5146 20.7023 20.1382 20.5673 20.8172C20.4322 21.4961 20.5015 22.1999 20.7664 22.8394C21.0313 23.4789 21.4799 24.0256 22.0555 24.4101ZM25.5 21.5C25.5 22.3284 24.8284 23 24 23C23.1716 23 22.5 22.3284 22.5 21.5C22.5 20.6716 23.1716 20 24 20C24.8284 20 25.5 20.6716 25.5 21.5Z" fill="#C0CCDA"/>
</svg>
