<svg width="36" height="36" viewBox="0 0 36 36" fill="none" xmlns="http://www.w3.org/2000/svg">
<circle cx="18" cy="18" r="18" fill="#FBAF18"/>
<path fill-rule="evenodd" clip-rule="evenodd" d="M14 8H22C22.7957 8 23.5587 8.31607 24.1213 8.87868C24.6839 9.44129 25 10.2044 25 11V27C25.0007 27.1762 24.9548 27.3495 24.867 27.5023C24.7792 27.655 24.6526 27.7819 24.5 27.87C24.3476 27.9564 24.1752 28.0012 24 28C23.8248 28.0012 23.6524 27.9564 23.5 27.87L18 24.69L12.5 27.87C12.348 27.9578 12.1755 28.004 12 28.004C11.8245 28.004 11.652 27.9578 11.5 27.87C11.3474 27.7819 11.2208 27.655 11.133 27.5023C11.0452 27.3495 10.9993 27.1762 11 27V11C11 10.2044 11.3161 9.44129 11.8787 8.87868C12.4413 8.31607 13.2044 8 14 8ZM23 10.9961C23 10.9974 23 10.9987 23 11V25.27L23 10.9961Z" fill="white"/>
</svg>
