<svg width="36" height="36" viewBox="0 0 36 36" fill="none" xmlns="http://www.w3.org/2000/svg">
<circle cx="18" cy="18" r="18" fill="#31B057"/>
<path fill-rule="evenodd" clip-rule="evenodd" d="M23.9646 20.0711C24.0864 20.1219 24.197 20.1963 24.29 20.29L26.71 22.71C26.8037 22.803 26.8781 22.9136 26.9289 23.0354C26.9797 23.1573 27.0058 23.288 27.0058 23.42C27.0058 23.552 26.9797 23.6827 26.9289 23.8046C26.8781 23.9264 26.8037 24.037 26.71 24.13L23.13 27.71C23.0366 27.8027 22.9257 27.876 22.8039 27.9258C22.6821 27.9755 22.5516 28.0008 22.42 28H20C19.7348 28 19.4804 27.8946 19.2929 27.7071C19.1054 27.5196 19 27.2652 19 27V24.58C18.9992 24.4484 19.0245 24.3179 19.0742 24.1961C19.124 24.0743 19.1973 23.9634 19.29 23.87L22.87 20.29C22.963 20.1963 23.0736 20.1219 23.1954 20.0711C23.3173 20.0203 23.448 19.9942 23.58 19.9942C23.712 19.9942 23.8427 20.0203 23.9646 20.0711ZM12 26H16C16.2652 26 16.5196 26.1054 16.7071 26.2929C16.8946 26.4804 17 26.7348 17 27C17 27.2652 16.8946 27.5196 16.7071 27.7071C16.5196 27.8946 16.2652 28 16 28H12C11.2044 28 10.4413 27.6839 9.87868 27.1213C9.31607 26.5587 9 25.7956 9 25V11C9 10.2044 9.31607 9.44129 9.87868 8.87868C10.4413 8.31607 11.2044 8 12 8H18.06L18.38 8.11C18.4099 8.10576 18.4402 8.10576 18.47 8.11C18.5728 8.15808 18.6673 8.22222 18.75 8.3L24.75 14.3C24.8278 14.3827 24.8919 14.4772 24.94 14.58V14.67C24.9695 14.7576 24.9896 14.8481 25 14.94V15V17C25 17.2652 24.8946 17.5196 24.7071 17.7071C24.5196 17.8946 24.2652 18 24 18C23.7348 18 23.4804 17.8946 23.2929 17.7071C23.1054 17.5196 23 17.2652 23 17V16H20C19.2044 16 18.4413 15.6839 17.8787 15.1213C17.3161 14.5587 17 13.7956 17 13V10H12C11.7348 10 11.4804 10.1054 11.2929 10.2929C11.1054 10.4804 11 10.7348 11 11V25C11 25.2652 11.1054 25.5196 11.2929 25.7071C11.4804 25.8946 11.7348 26 12 26ZM21.59 14L19 11.41V13C19 13.2652 19.1054 13.5196 19.2929 13.7071C19.4804 13.8946 19.7348 14 20 14H21.59ZM20.7071 19.7071C20.5196 19.8946 20.2652 20 20 20H14C13.7348 20 13.4804 19.8946 13.2929 19.7071C13.1054 19.5196 13 19.2652 13 19C13 18.7348 13.1054 18.4804 13.2929 18.2929C13.4804 18.1054 13.7348 18 14 18H20C20.2652 18 20.5196 18.1054 20.7071 18.2929C20.8946 18.4804 21 18.7348 21 19C21 19.2652 20.8946 19.5196 20.7071 19.7071ZM15 16H14C13.7348 16 13.4804 15.8946 13.2929 15.7071C13.1054 15.5196 13 15.2652 13 15C13 14.7348 13.1054 14.4804 13.2929 14.2929C13.4804 14.1054 13.7348 14 14 14H15C15.2652 14 15.5196 14.1054 15.7071 14.2929C15.8946 14.4804 16 14.7348 16 15C16 15.2652 15.8946 15.5196 15.7071 15.7071C15.5196 15.8946 15.2652 16 15 16ZM13.2929 22.2929C13.4804 22.1054 13.7348 22 14 22H16C16.2652 22 16.5196 22.1054 16.7071 22.2929C16.8946 22.4804 17 22.7348 17 23C17 23.2652 16.8946 23.5196 16.7071 23.7071C16.5196 23.8946 16.2652 24 16 24H14C13.7348 24 13.4804 23.8946 13.2929 23.7071C13.1054 23.5196 13 23.2652 13 23C13 22.7348 13.1054 22.4804 13.2929 22.2929Z" fill="white"/>
</svg>
