<svg width="36" height="36" viewBox="0 0 36 36" fill="none" xmlns="http://www.w3.org/2000/svg">
<circle cx="18" cy="18" r="18" fill="#1F75E1"/>
<path fill-rule="evenodd" clip-rule="evenodd" d="M10 8C8.89543 8 8 8.89543 8 10V26C8 27.1046 8.89543 28 10 28H22H27C28.1046 28 29 27.1046 29 26V17C29 15.8954 28.1046 15 27 15H24V10C24 8.89543 23.1046 8 22 8H10ZM24 18V24.5C24 25.3284 24.6716 26 25.5 26C26.3284 26 27 25.3284 27 24.5V18C27 17.4477 26.5523 17 26 17H25C24.4477 17 24 17.4477 24 18Z" fill="white"/>
<rect x="10" y="11" width="4" height="6" rx="1" fill="#1F75E1"/>
<rect x="16" y="11" width="5" height="2" rx="1" fill="#1F75E1"/>
<rect x="16" y="15" width="5" height="2" rx="1" fill="#1F75E1"/>
<rect x="10" y="19" width="11" height="2" rx="1" fill="#1F75E1"/>
<rect x="10" y="23" width="11" height="2" rx="1" fill="#1F75E1"/>
</svg>
