<svg width="20" height="20" viewBox="0 0 20 20" fill="none" xmlns="http://www.w3.org/2000/svg">
<path d="M1.66675 7.9165V16.2498C1.66675 18.0908 3.15913 19.5832 5.00008 19.5832H15.0001C16.841 19.5832 18.3334 18.0908 18.3334 16.2498V7.9165H1.66675Z" fill="#8492A6"/>
<path d="M1.66675 6.9165C1.66675 4.70736 3.45761 2.9165 5.66675 2.9165H14.3334C16.5426 2.9165 18.3334 4.70737 18.3334 6.9165V7.9165H1.66675V6.9165Z" fill="#C0CCDA"/>
<path fill-rule="evenodd" clip-rule="evenodd" d="M6.66659 1.25C7.12682 1.25 7.49992 1.6231 7.49992 2.08333V4.58333C7.49992 5.04357 7.12682 5.41667 6.66659 5.41667C6.20635 5.41667 5.83325 5.04357 5.83325 4.58333V2.08333C5.83325 1.6231 6.20635 1.25 6.66659 1.25Z" fill="#8492A6"/>
<path fill-rule="evenodd" clip-rule="evenodd" d="M13.3333 1.25C13.7935 1.25 14.1666 1.6231 14.1666 2.08333V4.58333C14.1666 5.04357 13.7935 5.41667 13.3333 5.41667C12.873 5.41667 12.4999 5.04357 12.4999 4.58333V2.08333C12.4999 1.6231 12.873 1.25 13.3333 1.25Z" fill="#8492A6"/>
<path fill-rule="evenodd" clip-rule="evenodd" d="M6.41675 10.4165C5.86446 10.4165 5.41675 10.8642 5.41675 11.4165V11.4998C5.41675 12.0521 5.86446 12.4998 6.41675 12.4998H6.50008C7.05237 12.4998 7.50008 12.0521 7.50008 11.4998V11.4165C7.50008 10.8642 7.05237 10.4165 6.50008 10.4165H6.41675ZM9.16675 11.4165C9.16675 10.8642 9.61446 10.4165 10.1667 10.4165H10.2501C10.8024 10.4165 11.2501 10.8642 11.2501 11.4165V11.4998C11.2501 12.0521 10.8024 12.4998 10.2501 12.4998H10.1667C9.61446 12.4998 9.16675 12.0521 9.16675 11.4998V11.4165ZM12.9167 11.4165C12.9167 10.8642 13.3645 10.4165 13.9167 10.4165H14.0001C14.5524 10.4165 15.0001 10.8642 15.0001 11.4165V11.4998C15.0001 12.0521 14.5524 12.4998 14.0001 12.4998H13.9167C13.3645 12.4998 12.9167 12.0521 12.9167 11.4998V11.4165ZM12.9167 15.5832C12.9167 15.0309 13.3645 14.5832 13.9167 14.5832H14.0001C14.5524 14.5832 15.0001 15.0309 15.0001 15.5832V15.6665C15.0001 16.2188 14.5524 16.6665 14.0001 16.6665H13.9167C13.3645 16.6665 12.9167 16.2188 12.9167 15.6665V15.5832ZM10.1667 14.5832C9.61446 14.5832 9.16675 15.0309 9.16675 15.5832V15.6665C9.16675 16.2188 9.61446 16.6665 10.1667 16.6665H10.2501C10.8024 16.6665 11.2501 16.2188 11.2501 15.6665V15.5832C11.2501 15.0309 10.8024 14.5832 10.2501 14.5832H10.1667Z" fill="white"/>
</svg>
