<svg width="20" height="20" viewBox="0 0 20 20" fill="none" xmlns="http://www.w3.org/2000/svg">
<circle cx="10" cy="10" r="8.33333" fill="#E52A34"/>
<path fill-rule="evenodd" clip-rule="evenodd" d="M13.3624 7.40021C13.6553 7.10732 13.6553 6.63244 13.3624 6.33955C13.0695 6.04666 12.5946 6.04667 12.3017 6.33956L10.0001 8.64122L7.69844 6.33959C7.40555 6.0467 6.93068 6.04671 6.63778 6.3396C6.34489 6.6325 6.3449 7.10737 6.63779 7.40026L8.93946 9.70189L6.63786 12.0035C6.34497 12.2964 6.34497 12.7713 6.63787 13.0642C6.93077 13.3571 7.40564 13.3571 7.69853 13.0642L10.0001 10.7625L12.3018 13.0641C12.5947 13.357 13.0695 13.357 13.3624 13.0641C13.6553 12.7712 13.6553 12.2964 13.3624 12.0035L11.0608 9.70187L13.3624 7.40021Z" fill="white"/>
</svg>
