<svg width="17" height="18" viewBox="0 0 17 18" fill="none" xmlns="http://www.w3.org/2000/svg">
<path d="M14.4116 3.12662C13.0443 1.75037 11.2396 0.894299 9.30877 0.70599C7.37792 0.517681 5.44188 1.00894 3.83441 2.09506C2.22694 3.18119 1.04878 4.79413 0.503055 6.6558C-0.0426717 8.51747 0.0782305 10.5112 0.844918 12.2933C0.924827 12.4589 0.951046 12.6454 0.919918 12.8266L0.186584 16.3516C0.158331 16.4868 0.164101 16.6268 0.203374 16.7592C0.242648 16.8916 0.314194 17.0121 0.411584 17.11C0.491421 17.1892 0.586479 17.2515 0.69103 17.293C0.79558 17.3346 0.907457 17.3545 1.01992 17.3516H1.18658L4.75325 16.635C4.93453 16.6132 5.11835 16.639 5.28658 16.71C7.06867 17.4766 9.06241 17.5975 10.9241 17.0518C12.7857 16.5061 14.3987 15.3279 15.4848 13.7205C16.5709 12.113 17.0622 10.177 16.8739 8.2461C16.6856 6.31526 15.8295 4.51061 14.4533 3.14329L14.4116 3.12662ZM5.18658 9.85162C5.02177 9.85162 4.86065 9.80275 4.72361 9.71118C4.58657 9.61961 4.47976 9.48946 4.41669 9.33719C4.35361 9.18492 4.33711 9.01736 4.36926 8.85571C4.40142 8.69406 4.48079 8.54558 4.59733 8.42903C4.71387 8.31249 4.86236 8.23312 5.02401 8.20097C5.18566 8.16881 5.35322 8.18532 5.50549 8.24839C5.65776 8.31146 5.78791 8.41827 5.87948 8.55531C5.97104 8.69235 6.01992 8.85347 6.01992 9.01829C6.01992 9.2393 5.93212 9.45126 5.77584 9.60754C5.61956 9.76382 5.4076 9.85162 5.18658 9.85162ZM8.51992 9.85162C8.3551 9.85162 8.19398 9.80275 8.05694 9.71118C7.9199 9.61961 7.81309 9.48946 7.75002 9.33719C7.68695 9.18492 7.67044 9.01736 7.7026 8.85571C7.73475 8.69406 7.81412 8.54558 7.93066 8.42903C8.04721 8.31249 8.19569 8.23312 8.35734 8.20097C8.51899 8.16881 8.68655 8.18532 8.83882 8.24839C8.99109 8.31146 9.12124 8.41827 9.21281 8.55531C9.30438 8.69235 9.35325 8.85347 9.35325 9.01829C9.35325 9.2393 9.26545 9.45126 9.10917 9.60754C8.95289 9.76382 8.74093 9.85162 8.51992 9.85162ZM11.8533 9.85162C11.6884 9.85162 11.5273 9.80275 11.3903 9.71118C11.2532 9.61961 11.1464 9.48946 11.0834 9.33719C11.0203 9.18492 11.0038 9.01736 11.0359 8.85571C11.0681 8.69406 11.1475 8.54558 11.264 8.42903C11.3805 8.31249 11.529 8.23312 11.6907 8.20097C11.8523 8.16881 12.0199 8.18532 12.1722 8.24839C12.3244 8.31146 12.4546 8.41827 12.5461 8.55531C12.6377 8.69235 12.6866 8.85347 12.6866 9.01829C12.6866 9.2393 12.5988 9.45126 12.4425 9.60754C12.2862 9.76382 12.0743 9.85162 11.8533 9.85162Z" fill="#8492A6"/>
</svg>
