<svg width="88" height="88" viewBox="0 0 88 88" fill="none" xmlns="http://www.w3.org/2000/svg">
<g filter="url(#filter0_d)">
<circle cx="44" cy="40" r="28" fill="#1F75E1"/>
</g>
<path fill-rule="evenodd" clip-rule="evenodd" d="M44.9707 30.0472C47.2877 30.2732 49.4533 31.3005 51.094 32.952L51.144 32.972C52.7955 34.6128 53.8228 36.7784 54.0488 39.0954C54.2748 41.4124 53.6853 43.7356 52.3819 45.6646C51.0786 47.5936 49.143 49.0074 46.909 49.6622C44.675 50.3171 42.2825 50.172 40.144 49.252C39.9422 49.1669 39.7216 49.1358 39.504 49.162L35.224 50.022H35.024C34.8891 50.0254 34.7548 50.0015 34.6294 49.9517C34.5039 49.9018 34.3898 49.8271 34.294 49.732C34.1772 49.6146 34.0913 49.4699 34.0442 49.3111C33.9971 49.1522 33.9901 48.9842 34.024 48.822L34.904 44.592C34.9414 44.3745 34.9099 44.1508 34.814 43.952C33.894 41.8135 33.7489 39.421 34.4038 37.187C35.0587 34.953 36.4725 33.0175 38.4014 31.7141C40.3304 30.4108 42.6536 29.8213 44.9707 30.0472ZM41.0239 40.022C41.0239 40.5743 40.5762 41.022 40.0239 41.022C39.4716 41.022 39.0239 40.5743 39.0239 40.022C39.0239 39.4697 39.4716 39.022 40.0239 39.022C40.5762 39.022 41.0239 39.4697 41.0239 40.022ZM44.0239 41.022C44.5762 41.022 45.0239 40.5743 45.0239 40.022C45.0239 39.4697 44.5762 39.022 44.0239 39.022C43.4716 39.022 43.0239 39.4697 43.0239 40.022C43.0239 40.5743 43.4716 41.022 44.0239 41.022ZM49.0239 40.022C49.0239 40.5743 48.5762 41.022 48.0239 41.022C47.4716 41.022 47.0239 40.5743 47.0239 40.022C47.0239 39.4697 47.4716 39.022 48.0239 39.022C48.5762 39.022 49.0239 39.4697 49.0239 40.022Z" fill="white"/>
<defs>
<filter id="filter0_d" x="0" y="0" width="88" height="88" filterUnits="userSpaceOnUse" color-interpolation-filters="sRGB">
<feFlood flood-opacity="0" result="BackgroundImageFix"/>
<feColorMatrix in="SourceAlpha" type="matrix" values="0 0 0 0 0 0 0 0 0 0 0 0 0 0 0 0 0 0 127 0"/>
<feOffset dy="4"/>
<feGaussianBlur stdDeviation="8"/>
<feColorMatrix type="matrix" values="0 0 0 0 0 0 0 0 0 0 0 0 0 0 0 0 0 0 0.2 0"/>
<feBlend mode="normal" in2="BackgroundImageFix" result="effect1_dropShadow"/>
<feBlend mode="normal" in="SourceGraphic" in2="effect1_dropShadow" result="shape"/>
</filter>
</defs>
</svg>
