<svg width="24" height="24" viewBox="0 0 24 24" fill="none" xmlns="http://www.w3.org/2000/svg">
<circle cx="12" cy="12" r="10" fill="#8492A6"/>
<path fill-rule="evenodd" clip-rule="evenodd" d="M15.9289 8.77422C16.2218 8.48133 16.2218 8.00645 15.9289 7.71356C15.636 7.42067 15.1611 7.42068 14.8682 7.71357L12.0002 10.5816L9.13213 7.71361C8.83924 7.42072 8.36436 7.42072 8.07147 7.71362C7.77858 8.00651 7.77859 8.48139 8.07148 8.77428L10.9396 11.6423L8.07156 14.5103C7.77867 14.8032 7.77868 15.2781 8.07157 15.571C8.36447 15.8639 8.83934 15.8639 9.13223 15.571L12.0002 12.7029L14.8682 15.5709C15.1611 15.8638 15.636 15.8638 15.9289 15.5709C16.2218 15.278 16.2218 14.8031 15.9289 14.5103L13.0609 11.6423L15.9289 8.77422Z" fill="white"/>
</svg>
