<svg width="24" height="24" viewBox="0 0 24 24" fill="none" xmlns="http://www.w3.org/2000/svg">
<path fill-rule="evenodd" clip-rule="evenodd" d="M13.8853 2.00358C12.9848 0.665472 11.0157 0.665472 10.1152 2.00358L9.56057 2.82776C9.05053 3.58566 8.13618 3.9644 7.2396 3.78913L6.26464 3.59854C4.6817 3.2891 3.28934 4.68146 3.59878 6.26439L3.78938 7.23936C3.96465 8.13593 3.58591 9.05028 2.828 9.56032L2.00383 10.115C0.665717 11.0155 0.665716 12.9845 2.00383 13.885L2.828 14.4397C3.58591 14.9497 3.96465 15.8641 3.78938 16.7606L3.59878 17.7356C3.28934 19.3185 4.6817 20.7109 6.26464 20.4015L7.2396 20.2109C8.13618 20.0356 9.05053 20.4143 9.56056 21.1722L10.1152 21.9964C11.0157 23.3345 12.9848 23.3345 13.8853 21.9964L14.4399 21.1722C14.95 20.4143 15.8643 20.0356 16.7609 20.2109L17.7359 20.4015C19.3188 20.7109 20.7111 19.3185 20.4017 17.7356L20.2111 16.7606C20.0358 15.8641 20.4146 14.9497 21.1725 14.4397L21.9967 13.885C23.3348 12.9845 23.3348 11.0155 21.9967 10.115L21.1725 9.56032C20.4146 9.05028 20.0358 8.13593 20.2111 7.23936L20.4017 6.26439C20.7111 4.68146 19.3188 3.2891 17.7359 3.59854L16.7609 3.78913C15.8643 3.9644 14.95 3.58566 14.4399 2.82776L13.8853 2.00358ZM12.0002 15.8393C14.1206 15.8393 15.8395 14.1204 15.8395 12C15.8395 9.87963 14.1206 8.16074 12.0002 8.16074C9.87988 8.16074 8.16098 9.87963 8.16098 12C8.16098 14.1204 9.87988 15.8393 12.0002 15.8393Z" fill="#8492A6"/>
</svg>
