<svg width="24" height="24" viewBox="0 0 24 24" fill="none" xmlns="http://www.w3.org/2000/svg">
<path fill-rule="evenodd" clip-rule="evenodd" d="M13.9939 7C13.9939 7.55228 14.4414 8 14.9935 8C15.5455 8 15.9931 7.55228 15.9931 7V6C15.9931 3.79086 14.203 2 11.9948 2H5.99827C3.79008 2 2 3.79086 2 6V18C2 20.2091 3.79008 22 5.99827 22H12.0017C14.2099 22 16 20.2091 16 18V17C16 16.4477 15.5525 16 15.0004 16C14.4484 16 14.0009 16.4477 14.0009 17V18C14.0009 19.1046 13.1058 20 12.0017 20H5.99827C4.89417 20 3.99913 19.1046 3.99913 18V6C3.99913 4.89543 4.89417 4 5.99827 4H11.9948C13.0989 4 13.9939 4.89543 13.9939 6V7ZM18.5786 11L17.2857 9.70708C16.8952 9.31656 16.8952 8.68339 17.2857 8.29287C17.6763 7.90234 18.3094 7.90234 18.6999 8.29287L21.6999 11.2929C22.0905 11.6834 22.0905 12.3166 21.6999 12.7071L18.6999 15.7071C18.3094 16.0976 17.6763 16.0976 17.2857 15.7071C16.8952 15.3166 16.8952 14.6834 17.2857 14.2929L18.5786 13H8.99306C8.44077 13 7.99306 12.5523 7.99306 12C7.99306 11.4477 8.44077 11 8.99306 11H18.5786Z" fill="#E52A34"/>
</svg>
