<svg width="24" height="24" viewBox="0 0 24 24" fill="none" xmlns="http://www.w3.org/2000/svg">
<path fill-rule="evenodd" clip-rule="evenodd" d="M2.25714 6C1.56284 6 1 6.56284 1 7.25714V8.77143C1 9.32371 1.46496 9.75294 1.97405 9.96706C2.87892 10.3477 3.51429 11.2425 3.51429 12.2857C3.51429 13.3289 2.87892 14.2238 1.97405 14.6044C1.46496 14.8185 1 15.2477 1 15.8V17.3143C1 18.0086 1.56284 18.5714 2.25714 18.5714H13.5714C14.2657 18.5714 14.8286 18.0086 14.8286 17.3143V7.25714C14.8286 6.56284 14.2657 6 13.5714 6H2.25714ZM17.3429 6C16.6486 6 16.0857 6.56284 16.0857 7.25714V17.3143C16.0857 18.0086 16.6486 18.5714 17.3429 18.5714H21.7429C22.4372 18.5714 23 18.0086 23 17.3143V15.8C23 15.2477 22.535 14.8185 22.026 14.6044C21.1211 14.2238 20.4857 13.3289 20.4857 12.2857C20.4857 11.2425 21.1211 10.3477 22.026 9.96706C22.535 9.75294 23 9.32371 23 8.77143V7.25714C23 6.56284 22.4372 6 21.7429 6H17.3429Z" fill="#8492A6"/>
</svg>
