<svg width="13" height="18" viewBox="0 0 13 18" fill="none" xmlns="http://www.w3.org/2000/svg">
<path d="M12.4428 16.2907L10.5178 8.79109C11.2295 7.90561 11.615 6.80227 11.6095 5.66625C11.6095 4.34023 11.0827 3.06853 10.1451 2.13089C9.20744 1.19326 7.93573 0.666504 6.60972 0.666504C5.2837 0.666504 4.012 1.19326 3.07436 2.13089C2.13673 3.06853 1.60997 4.34023 1.60997 5.66625C1.60769 6.81103 2.00229 7.92122 2.72658 8.80775L0.776682 16.2907C0.735206 16.4506 0.742212 16.6193 0.796811 16.7752C0.851409 16.9312 0.951135 17.0674 1.08332 17.1665C1.2155 17.2656 1.37417 17.3233 1.53916 17.332C1.70416 17.3408 1.86803 17.3003 2.00995 17.2157L6.45139 14.6075L11.1845 17.224C11.3124 17.3012 11.4602 17.3389 11.6095 17.3323C11.7388 17.3364 11.8674 17.3104 11.985 17.2562C12.1025 17.2019 12.2058 17.1211 12.2867 17.02C12.3676 16.9189 12.4238 16.8004 12.4509 16.6738C12.478 16.5472 12.4752 16.416 12.4428 16.2907ZM6.60972 2.33309C7.26895 2.33309 7.91339 2.52857 8.46152 2.89482C9.00966 3.26108 9.43688 3.78165 9.68916 4.3907C9.94144 4.99976 10.0074 5.66995 9.87883 6.31652C9.75022 6.96309 9.43277 7.557 8.96662 8.02315C8.50047 8.4893 7.90655 8.80675 7.25998 8.93536C6.61341 9.06398 5.94323 8.99797 5.33417 8.74569C4.72511 8.49341 4.20455 8.06619 3.83829 7.51805C3.47204 6.96992 3.27655 6.32548 3.27655 5.66625C3.27655 4.78224 3.62773 3.93443 4.25281 3.30935C4.8779 2.68426 5.72571 2.33309 6.60972 2.33309Z" fill="#8492A6"/>
</svg>
