<svg width="20" height="20" viewBox="0 0 20 20" fill="none" xmlns="http://www.w3.org/2000/svg">
<path d="M4.1665 4.16666V15.8333C4.1665 16.0543 4.2543 16.2663 4.41058 16.4226C4.56686 16.5789 4.77882 16.6667 4.99984 16.6667H7.49984V15H5.83317V5H7.49984V3.33333H4.99984C4.77882 3.33333 4.56686 3.42113 4.41058 3.57741C4.2543 3.73369 4.1665 3.94565 4.1665 4.16666ZM16.0348 3.35833L9.36817 1.69166C9.24535 1.66103 9.11717 1.65878 8.99335 1.68508C8.86953 1.71138 8.75333 1.76555 8.65357 1.84346C8.55381 1.92137 8.47311 2.02099 8.41759 2.13475C8.36208 2.2485 8.33321 2.37341 8.33317 2.5V17.5C8.33288 17.6267 8.36154 17.7518 8.41695 17.8657C8.47237 17.9796 8.55308 18.0794 8.65293 18.1574C8.75277 18.2353 8.86911 18.2895 8.99307 18.3156C9.11703 18.3418 9.24533 18.3393 9.36817 18.3083L16.0348 16.6417C16.2152 16.5967 16.3753 16.4927 16.4898 16.3462C16.6043 16.1997 16.6665 16.0192 16.6665 15.8333V4.16666C16.6665 3.98078 16.6043 3.80025 16.4898 3.65378C16.3753 3.50731 16.2152 3.40331 16.0348 3.35833ZM12.4998 10.1567C12.4902 10.3712 12.3982 10.5738 12.243 10.7223C12.0878 10.8707 11.8813 10.9536 11.6665 10.9536C11.4517 10.9536 11.2452 10.8707 11.09 10.7223C10.9348 10.5738 10.8428 10.3712 10.8332 10.1567V9.8425C10.8333 9.62148 10.9212 9.40956 11.0775 9.25336C11.2339 9.09716 11.4459 9.00947 11.6669 9.00958C11.8879 9.00969 12.0999 9.09759 12.2561 9.25395C12.4123 9.41031 12.4999 9.62232 12.4998 9.84333V10.1567Z" fill="#8492A6"/>
</svg>
