<svg width="240" height="161" viewBox="0 0 240 161" fill="none" xmlns="http://www.w3.org/2000/svg">
<rect x="68.4849" y="27.422" width="122.68" height="79.052" rx="10.3973" fill="#EFF2F7"/>
<rect x="84.6465" y="55" width="40.404" height="6.7052" rx="3.3526" fill="#C0CCDA"/>
<rect x="84.6465" y="72.4335" width="83.5017" height="6.7052" rx="3.3526" fill="#E5E9F2"/>
<g filter="url(#filter0_d)">
<rect x="52.3232" y="68.948" width="122.68" height="75.052" rx="10.3973" fill="white"/>
</g>
<rect x="68.4849" y="94" width="40.404" height="6.7052" rx="3.3526" fill="#E0E6ED"/>
<rect x="68.4849" y="111.434" width="71.5017" height="6.7052" rx="3.3526" fill="#EFF2F7"/>
<ellipse cx="24.0404" cy="67.6069" rx="4.0404" ry="4.02312" fill="#E0E6ED"/>
<ellipse cx="215.96" cy="111.191" rx="4.0404" ry="4.02312" fill="#E0E6ED"/>
<ellipse cx="138.519" cy="14.6821" rx="2.6936" ry="2.68208" fill="#E0E6ED"/>
<path d="M47.633 38.7746C47.633 41.0053 45.8161 42.8184 43.569 42.8184C41.3219 42.8184 39.5051 41.0053 39.5051 38.7746C39.5051 36.5439 41.3219 34.7308 43.569 34.7308C45.8161 34.7308 47.633 36.5439 47.633 38.7746Z" stroke="#E5E9F2" stroke-width="1.29966"/>
<path d="M38.5186 102.139C38.5186 101.768 38.2171 101.468 37.8452 101.468C37.4732 101.468 37.1718 101.768 37.1718 102.139C37.1718 103.99 35.6563 105.491 33.8047 105.491C33.4328 105.491 33.1313 105.792 33.1313 106.162C33.1313 106.532 33.4328 106.832 33.8047 106.832C35.6563 106.832 37.1718 108.333 37.1718 110.185C37.1718 110.555 37.4732 110.855 37.8452 110.855C38.2171 110.855 38.5186 110.555 38.5186 110.185C38.5186 108.333 40.034 106.832 41.8856 106.832C42.2575 106.832 42.559 106.532 42.559 106.162C42.559 105.792 42.2575 105.491 41.8856 105.491C40.034 105.491 38.5186 103.99 38.5186 102.139Z" fill="#E0E6ED"/>
<path d="M211.727 28.5252C211.727 28.2607 211.511 28.0462 211.246 28.0462C210.98 28.0462 210.765 28.2607 210.765 28.5252C210.765 29.8477 209.682 30.9199 208.36 30.9199C208.094 30.9199 207.879 31.1343 207.879 31.3988C207.879 31.6633 208.094 31.8778 208.36 31.8778C209.682 31.8778 210.765 32.9499 210.765 34.2725C210.765 34.537 210.98 34.7514 211.246 34.7514C211.511 34.7514 211.727 34.537 211.727 34.2725C211.727 32.9499 212.809 31.8778 214.132 31.8778C214.397 31.8778 214.613 31.6633 214.613 31.3988C214.613 31.1343 214.397 30.9199 214.132 30.9199C212.809 30.9199 211.727 29.8477 211.727 28.5252Z" fill="#E0E6ED"/>
<defs>
<filter id="filter0_d" x="39.3266" y="59.8504" width="148.673" height="101.045" filterUnits="userSpaceOnUse" color-interpolation-filters="sRGB">
<feFlood flood-opacity="0" result="BackgroundImageFix"/>
<feColorMatrix in="SourceAlpha" type="matrix" values="0 0 0 0 0 0 0 0 0 0 0 0 0 0 0 0 0 0 127 0"/>
<feOffset dy="3.89899"/>
<feGaussianBlur stdDeviation="6.49832"/>
<feColorMatrix type="matrix" values="0 0 0 0 0 0 0 0 0 0 0 0 0 0 0 0 0 0 0.1 0"/>
<feBlend mode="normal" in2="BackgroundImageFix" result="effect1_dropShadow"/>
<feBlend mode="normal" in="SourceGraphic" in2="effect1_dropShadow" result="shape"/>
</filter>
</defs>
</svg>
