<svg width="240" height="162" viewBox="0 0 240 162" fill="none" xmlns="http://www.w3.org/2000/svg">
<rect x="91" y="10" width="86.6801" height="99.052" rx="10.3973" fill="#EFF2F7"/>
<rect x="106.677" y="35.052" width="36.404" height="6.7052" rx="3.3526" fill="#C0CCDA"/>
<rect x="106.677" y="52.052" width="55.5017" height="6.7052" rx="3.3526" fill="#E0E6ED"/>
<rect x="106.677" y="69.052" width="55.5017" height="6.7052" rx="3.3526" fill="#E0E6ED"/>
<g filter="url(#filter0_d)">
<rect x="63" y="46" width="86.6801" height="99.052" rx="10.3973" fill="white"/>
</g>
<rect x="78.6768" y="71.052" width="36.404" height="6.7052" rx="3.3526" fill="#E0E6ED"/>
<rect x="78.6768" y="88.052" width="55.5017" height="6.7052" rx="3.3526" fill="#EFF2F7"/>
<rect x="78.6768" y="105.052" width="55.5017" height="6.7052" rx="3.3526" fill="#EFF2F7"/>
<ellipse cx="33.0404" cy="36.0231" rx="4.0404" ry="4.02312" fill="#E0E6ED"/>
<ellipse cx="203.04" cy="97.0231" rx="4.0404" ry="4.02312" fill="#E0E6ED"/>
<ellipse cx="161.694" cy="117.682" rx="2.6936" ry="2.68208" fill="#E0E6ED"/>
<path d="M71.7778 14.6936C71.7778 16.9244 69.9609 18.7375 67.7138 18.7375C65.4667 18.7375 63.6498 16.9244 63.6498 14.6936C63.6498 12.4629 65.4667 10.6498 67.7138 10.6498C69.9609 10.6498 71.7778 12.4629 71.7778 14.6936Z" stroke="#E5E9F2" stroke-width="1.29966"/>
<path d="M46.3872 71.6705C46.3872 71.3002 46.0857 71 45.7138 71C45.3419 71 45.0404 71.3002 45.0404 71.6705C45.0404 73.5221 43.525 75.0231 41.6734 75.0231C41.3015 75.0231 41 75.3233 41 75.6936C41 76.064 41.3015 76.3642 41.6734 76.3642C43.525 76.3642 45.0404 77.8652 45.0404 79.7168C45.0404 80.0871 45.3419 80.3873 45.7138 80.3873C46.0857 80.3873 46.3872 80.0871 46.3872 79.7168C46.3872 77.8652 47.9026 76.3642 49.7542 76.3642C50.1261 76.3642 50.4276 76.064 50.4276 75.6936C50.4276 75.3233 50.1261 75.0231 49.7542 75.0231C47.9026 75.0231 46.3872 73.5221 46.3872 71.6705Z" fill="#E0E6ED"/>
<path d="M195.848 40.4789C195.848 40.2144 195.633 40 195.367 40C195.101 40 194.886 40.2144 194.886 40.4789C194.886 41.8015 193.804 42.8737 192.481 42.8737C192.215 42.8737 192 43.0881 192 43.3526C192 43.6171 192.215 43.8315 192.481 43.8315C193.804 43.8315 194.886 44.9037 194.886 46.2263C194.886 46.4908 195.101 46.7052 195.367 46.7052C195.633 46.7052 195.848 46.4908 195.848 46.2263C195.848 44.9037 196.93 43.8315 198.253 43.8315C198.519 43.8315 198.734 43.6171 198.734 43.3526C198.734 43.0881 198.519 42.8737 198.253 42.8737C196.93 42.8737 195.848 41.8015 195.848 40.4789Z" fill="#E0E6ED"/>
<defs>
<filter id="filter0_d" x="50.0034" y="36.9024" width="112.673" height="125.045" filterUnits="userSpaceOnUse" color-interpolation-filters="sRGB">
<feFlood flood-opacity="0" result="BackgroundImageFix"/>
<feColorMatrix in="SourceAlpha" type="matrix" values="0 0 0 0 0 0 0 0 0 0 0 0 0 0 0 0 0 0 127 0"/>
<feOffset dy="3.89899"/>
<feGaussianBlur stdDeviation="6.49832"/>
<feColorMatrix type="matrix" values="0 0 0 0 0 0 0 0 0 0 0 0 0 0 0 0 0 0 0.1 0"/>
<feBlend mode="normal" in2="BackgroundImageFix" result="effect1_dropShadow"/>
<feBlend mode="normal" in="SourceGraphic" in2="effect1_dropShadow" result="shape"/>
</filter>
</defs>
</svg>
