<svg width="63" height="62" viewBox="0 0 63 62" fill="none" xmlns="http://www.w3.org/2000/svg">
<g clip-path="url(#clip0)">
<path d="M2.49495 8.46319C3.27253 5.30041 5.64327 2.95815 8.80665 2.18301C12.99 1.15794 20.1832 0 31.3334 0C42.2267 0 49.3434 1.10522 53.5663 2.11199C56.9182 2.91112 59.4005 5.42331 60.1974 8.7758C61.2105 13.0379 62.3334 20.1982 62.3334 31C62.3334 41.8018 61.2105 48.9621 60.1974 53.2242C59.4005 56.5767 56.9182 59.0889 53.5663 59.888C49.3434 60.8948 42.2267 62 31.3334 62C20.1832 62 12.99 60.8421 8.80665 59.817C5.64328 59.0419 3.27253 56.6996 2.49495 53.5368C1.47525 49.3892 0.333374 42.2362 0.333374 31C0.333374 19.7638 1.47525 12.6108 2.49495 8.46319Z" fill="white"/>
<mask id="mask0" mask-type="alpha" maskUnits="userSpaceOnUse" x="0" y="0" width="63" height="62">
<path d="M2.49495 8.46319C3.27253 5.30041 5.64327 2.95815 8.80665 2.18301C12.99 1.15794 20.1832 0 31.3334 0C42.2267 0 49.3434 1.10522 53.5663 2.11199C56.9182 2.91112 59.4005 5.42331 60.1974 8.7758C61.2105 13.0379 62.3334 20.1982 62.3334 31C62.3334 41.8018 61.2105 48.9621 60.1974 53.2242C59.4005 56.5767 56.9182 59.0889 53.5663 59.888C49.3434 60.8948 42.2267 62 31.3334 62C20.1832 62 12.99 60.8421 8.80665 59.817C5.64328 59.0419 3.27253 56.6996 2.49495 53.5368C1.47525 49.3892 0.333374 42.2362 0.333374 31C0.333374 19.7638 1.47525 12.6108 2.49495 8.46319Z" fill="white"/>
</mask>
<g mask="url(#mask0)">
<circle cx="54.3334" cy="8" r="30" fill="#EAF7EE"/>
<path d="M49.0433 35.9849C48.6036 33.3463 46.2582 27.0065 44.5725 22.6822C43.9861 21.1797 42.8135 20.0437 41.3843 19.494C41.311 19.2741 41.201 19.0542 41.1277 18.8344C40.6513 17.5517 39.2954 16.8188 37.9761 17.0387L37.4631 17.112C36.1072 17.3319 35.1177 18.5046 35.0811 19.8605C35.0811 20.1903 35.0444 20.5567 35.0444 20.9232C34.2016 21.876 33.6519 23.0853 33.5786 24.4046C33.0289 24.1114 32.4059 23.9282 31.7096 23.9282C31.05 23.9282 30.3904 24.1114 29.8407 24.4046C29.7674 23.0853 29.2543 21.8394 28.3748 20.9232C28.3748 20.5567 28.3748 20.1903 28.3382 19.8605C28.3015 18.5046 27.3121 17.3319 25.9562 17.112L25.5164 17.0387C24.1605 16.8188 22.8412 17.5517 22.3648 18.8344C22.2915 19.0542 22.1816 19.2741 22.1083 19.494C20.6791 20.0803 19.5064 21.1797 18.9201 22.6822C17.271 26.9699 14.9256 33.3097 14.4492 35.9849C13.7163 40.1625 16.538 44.157 20.7524 44.8899C24.8934 45.5862 28.7779 42.911 29.6208 38.8066C30.2438 39.1731 30.9767 39.4296 31.7463 39.4296C32.5158 39.4296 33.2488 39.2097 33.8718 38.8066C34.7146 42.911 38.6358 45.5862 42.7402 44.8899C46.9545 44.157 49.7763 40.1625 49.0433 35.9849ZM22.035 42.1048C19.3965 42.1048 17.2343 39.9427 17.2343 37.3041C17.2343 34.6656 19.3965 32.5035 22.035 32.5035C24.6735 32.5035 26.8357 34.6656 26.8357 37.3041C26.8723 39.9427 24.7102 42.1048 22.035 42.1048ZM31.7463 37.1575C30.7202 37.1575 29.8773 36.3147 29.8773 35.2886C29.8773 34.2625 30.7202 33.4196 31.7463 33.4196C32.7724 33.4196 33.6152 34.2625 33.6152 35.2886C33.6152 36.3147 32.7724 37.1575 31.7463 37.1575ZM41.4575 42.1048C38.819 42.1048 36.6569 39.9427 36.6569 37.3041C36.6569 34.6656 38.819 32.5035 41.4575 32.5035C44.0961 32.5035 46.2582 34.6656 46.2582 37.3041C46.2582 39.9427 44.0961 42.1048 41.4575 42.1048Z" fill="#31B057"/>
</g>
</g>
<defs>
<clipPath id="clip0">
<rect width="62" height="62" fill="white" transform="translate(0.333374)"/>
</clipPath>
</defs>
</svg>
