<svg width="62" height="62" viewBox="0 0 62 62" fill="none" xmlns="http://www.w3.org/2000/svg">
<g clip-path="url(#clip0)">
<path d="M2.16158 8.46319C2.93916 5.30041 5.3099 2.95815 8.47328 2.18301C12.6566 1.15794 19.8499 0 31 0C41.8934 0 49.01 1.10522 53.2329 2.11199C56.5849 2.91112 59.0672 5.42331 59.8641 8.7758C60.8772 13.0379 62 20.1982 62 31C62 41.8018 60.8772 48.9621 59.8641 53.2242C59.0672 56.5767 56.5849 59.0889 53.2329 59.888C49.01 60.8948 41.8934 62 31 62C19.8499 62 12.6566 60.8421 8.47328 59.817C5.3099 59.0419 2.93916 56.6996 2.16158 53.5368C1.14187 49.3892 0 42.2362 0 31C0 19.7638 1.14187 12.6108 2.16158 8.46319Z" fill="white"/>
<mask id="mask0" mask-type="alpha" maskUnits="userSpaceOnUse" x="0" y="0" width="62" height="62">
<path d="M2.16158 8.46319C2.93916 5.30041 5.3099 2.95815 8.47328 2.18301C12.6566 1.15794 19.8499 0 31 0C41.8934 0 49.01 1.10522 53.2329 2.11199C56.5849 2.91112 59.0672 5.42331 59.8641 8.7758C60.8772 13.0379 62 20.1982 62 31C62 41.8018 60.8772 48.9621 59.8641 53.2242C59.0672 56.5767 56.5849 59.0889 53.2329 59.888C49.01 60.8948 41.8934 62 31 62C19.8499 62 12.6566 60.8421 8.47328 59.817C5.3099 59.0419 2.93916 56.6996 2.16158 53.5368C1.14187 49.3892 0 42.2362 0 31C0 19.7638 1.14187 12.6108 2.16158 8.46319Z" fill="white"/>
</mask>
<g mask="url(#mask0)">
<circle cx="54" cy="8" r="30" fill="#FFF3EB"/>
<path d="M15.5 21C14.3954 21 13.5 21.8954 13.5 23V26C13.5 26.5523 13.9547 26.9872 14.4899 27.1234C16.2202 27.5639 17.5 29.1325 17.5 31C17.5 32.8675 16.2202 34.4361 14.4899 34.8766C13.9547 35.0128 13.5 35.4477 13.5 36V39C13.5 40.1046 14.3954 41 15.5 41H33.5C34.6046 41 35.5 40.1046 35.5 39V23C35.5 21.8954 34.6046 21 33.5 21H15.5Z" fill="#FC8338"/>
<path d="M39.5 21C38.3954 21 37.5 21.8954 37.5 23V39C37.5 40.1046 38.3954 41 39.5 41H46.5C47.6046 41 48.5 40.1046 48.5 39V36C48.5 35.4477 48.0453 35.0128 47.5101 34.8766C45.7798 34.4361 44.5 32.8675 44.5 31C44.5 29.1325 45.7798 27.5639 47.5101 27.1234C48.0453 26.9872 48.5 26.5523 48.5 26V23C48.5 21.8954 47.6046 21 46.5 21H39.5Z" fill="#CA692D"/>
<path d="M25.5793 26.655C25.7761 26.3486 26.2239 26.3486 26.4207 26.655L27.5993 28.4899C27.667 28.5954 27.7718 28.6715 27.893 28.7033L30.0024 29.2572C30.3546 29.3497 30.4929 29.7756 30.2624 30.0574L28.8814 31.7454C28.8021 31.8423 28.7621 31.9656 28.7692 32.0906L28.8943 34.2679C28.9152 34.6315 28.5529 34.8947 28.2136 34.7625L26.1815 33.9707C26.0648 33.9252 25.9352 33.9252 25.8185 33.9707L23.7864 34.7625C23.4471 34.8947 23.0848 34.6315 23.1057 34.2679L23.2308 32.0906C23.2379 31.9656 23.1979 31.8423 23.1186 31.7454L21.7376 30.0574C21.5071 29.7756 21.6454 29.3497 21.9976 29.2572L24.107 28.7033C24.2282 28.6715 24.333 28.5954 24.4007 28.4899L25.5793 26.655Z" fill="#CA692D"/>
</g>
</g>
<defs>
<clipPath id="clip0">
<path d="M0 0H62V62H0V0Z" fill="white"/>
</clipPath>
</defs>
</svg>
