<svg width="63" height="62" viewBox="0 0 63 62" fill="none" xmlns="http://www.w3.org/2000/svg">
<g clip-path="url(#clip0)">
<path d="M2.82824 8.46319C3.60582 5.30041 5.97656 2.95815 9.13994 2.18301C13.3233 1.15794 20.5165 0 31.6667 0C42.56 0 49.6767 1.10522 53.8996 2.11199C57.2515 2.91112 59.7338 5.42331 60.5307 8.7758C61.5438 13.0379 62.6667 20.1982 62.6667 31C62.6667 41.8018 61.5438 48.9621 60.5307 53.2242C59.7338 56.5767 57.2515 59.0889 53.8996 59.888C49.6767 60.8948 42.56 62 31.6667 62C20.5165 62 13.3233 60.8421 9.13994 59.817C5.97657 59.0419 3.60582 56.6996 2.82824 53.5368C1.80854 49.3892 0.666664 42.2362 0.666664 31C0.666664 19.7638 1.80854 12.6108 2.82824 8.46319Z" fill="white"/>
<mask id="mask0" mask-type="alpha" maskUnits="userSpaceOnUse" x="0" y="0" width="63" height="62">
<path d="M2.82824 8.46319C3.60582 5.30041 5.97656 2.95815 9.13994 2.18301C13.3233 1.15794 20.5165 0 31.6667 0C42.56 0 49.6767 1.10522 53.8996 2.11199C57.2515 2.91112 59.7338 5.42331 60.5307 8.7758C61.5438 13.0379 62.6667 20.1982 62.6667 31C62.6667 41.8018 61.5438 48.9621 60.5307 53.2242C59.7338 56.5767 57.2515 59.0889 53.8996 59.888C49.6767 60.8948 42.56 62 31.6667 62C20.5165 62 13.3233 60.8421 9.13994 59.817C5.97657 59.0419 3.60582 56.6996 2.82824 53.5368C1.80854 49.3892 0.666664 42.2362 0.666664 31C0.666664 19.7638 1.80854 12.6108 2.82824 8.46319Z" fill="white"/>
</mask>
<g mask="url(#mask0)">
<circle cx="54.6667" cy="8" r="30" fill="#FCEAEB"/>
<path d="M27.9767 32.4501C27.9001 31.4896 28.5508 30.6394 29.3401 30.0867C31.1387 28.827 32.3631 26.2701 32.3631 22.9742C32.3631 18.2175 29.8127 15 26.6667 15C23.5207 15 20.9704 18.2175 20.9704 22.9742C20.9704 26.27 22.1947 28.8268 23.9931 30.0865C24.7822 30.6392 25.4328 31.4893 25.3563 32.4498L24.2829 45.9206C24.2366 46.5023 24.6962 47 25.2798 47H28.0532C28.6368 47 29.0964 46.5023 29.05 45.9206L27.9767 32.4501Z" fill="#E52A34"/>
<path d="M28.0122 31.895C27.975 32.0748 27.9618 32.2603 27.9769 32.4501L29.0502 45.9206C29.0965 46.5014 28.6385 46.9984 28.0562 47L28.0534 47H25.28L25.2772 47C24.6949 46.9984 24.2369 46.5014 24.2832 45.9206L25.3565 32.4498C25.3716 32.2601 25.3584 32.0747 25.3213 31.895H28.0122Z" fill="#B7222A"/>
<path d="M42.3629 15.8806C42.3629 15.3943 41.9687 15 41.4823 15C39.1642 15 37.2431 16.7973 37.0889 19.1102L36.4657 28.4582C36.4052 29.3663 36.9654 30.2008 37.8288 30.4886L37.9033 30.5135C38.7638 30.8003 39.3236 31.6303 39.267 32.5356L38.4293 45.9376C38.3934 46.5133 38.8506 47 39.4274 47H41.3629C41.9152 47 42.3629 46.5523 42.3629 46V15.8806Z" fill="#E52A34"/>
<path d="M42.363 31.9276H39.2118C39.2604 32.1224 39.28 32.327 39.267 32.5356L38.4294 45.9376C38.3934 46.5133 38.8506 47 39.4274 47H41.363C41.9153 47 42.363 46.5523 42.363 46V31.9276Z" fill="#B7222A"/>
</g>
</g>
<defs>
<clipPath id="clip0">
<path d="M0.666664 0H62.6667V62H0.666664V0Z" fill="white"/>
</clipPath>
</defs>
</svg>
