<svg width="62" height="62" viewBox="0 0 62 62" fill="none" xmlns="http://www.w3.org/2000/svg">
<path d="M2.16158 8.46319C2.93916 5.30041 5.3099 2.95815 8.47328 2.18301C12.6566 1.15794 19.8499 0 31 0C41.8934 0 49.01 1.10522 53.2329 2.11199C56.5849 2.91112 59.0672 5.42331 59.8641 8.7758C60.8772 13.0379 62 20.1982 62 31C62 41.8018 60.8772 48.9621 59.8641 53.2242C59.0672 56.5767 56.5849 59.0889 53.2329 59.888C49.01 60.8948 41.8934 62 31 62C19.8499 62 12.6566 60.8421 8.47328 59.817C5.3099 59.0419 2.93916 56.6996 2.16158 53.5368C1.14187 49.3892 0 42.2362 0 31C0 19.7638 1.14187 12.6108 2.16158 8.46319Z" fill="white"/>
<mask id="mask0" mask-type="alpha" maskUnits="userSpaceOnUse" x="0" y="0" width="62" height="62">
<path d="M2.16158 8.46319C2.93916 5.30041 5.3099 2.95815 8.47328 2.18301C12.6566 1.15794 19.8499 0 31 0C41.8934 0 49.01 1.10522 53.2329 2.11199C56.5849 2.91112 59.0672 5.42331 59.8641 8.7758C60.8772 13.0379 62 20.1982 62 31C62 41.8018 60.8772 48.9621 59.8641 53.2242C59.0672 56.5767 56.5849 59.0889 53.2329 59.888C49.01 60.8948 41.8934 62 31 62C19.8499 62 12.6566 60.8421 8.47328 59.817C5.3099 59.0419 2.93916 56.6996 2.16158 53.5368C1.14187 49.3892 0 42.2362 0 31C0 19.7638 1.14187 12.6108 2.16158 8.46319Z" fill="white"/>
</mask>
<g mask="url(#mask0)">
<circle cx="54" cy="8" r="30" fill="#FFF7E8"/>
<path d="M41.2573 38.7869H46.386V43.4627C46.386 44.015 45.9383 44.4627 45.386 44.4627H42.2573C41.705 44.4627 41.2573 44.015 41.2573 43.4627V38.7869Z" fill="#C98C13"/>
<path d="M15.614 38.7869H20.7427V43.4627C20.7427 44.015 20.295 44.4627 19.7427 44.4627H16.614C16.0617 44.4627 15.614 44.015 15.614 43.4627V38.7869Z" fill="#C98C13"/>
<circle cx="25.8713" cy="27.2475" r="3.8465" fill="#C98C13"/>
<path d="M16.8962 17.5373C16.1881 17.5373 15.614 18.1113 15.614 18.8194V38.787L46.386 38.7869V28.5296C46.386 25.6971 44.0898 23.401 41.2573 23.401H32C31.4477 23.401 31 23.8487 31 24.401V31.3761C31 31.9284 30.5523 32.3761 30 32.3761H21.7427C21.1904 32.3761 20.7427 31.9284 20.7427 31.3761L20.7427 18.8194C20.7427 18.1113 20.1686 17.5373 19.4605 17.5373H16.8962Z" fill="#FFCB3F"/>
</g>
</svg>
