<svg width="63" height="62" viewBox="0 0 63 62" fill="none" xmlns="http://www.w3.org/2000/svg">
<g clip-path="url(#clip0)">
<path d="M2.4949 8.46319C3.27249 5.30041 5.64323 2.95815 8.8066 2.18301C12.9899 1.15794 20.1832 0 31.3333 0C42.2267 0 49.3433 1.10522 53.5662 2.11199C56.9182 2.91112 59.4005 5.42331 60.1974 8.7758C61.2105 13.0379 62.3333 20.1982 62.3333 31C62.3333 41.8018 61.2105 48.9621 60.1974 53.2242C59.4005 56.5767 56.9182 59.0889 53.5662 59.888C49.3433 60.8948 42.2267 62 31.3333 62C20.1832 62 12.9899 60.8421 8.80661 59.817C5.64323 59.0419 3.27249 56.6996 2.4949 53.5368C1.4752 49.3892 0.333328 42.2362 0.333328 31C0.333328 19.7638 1.4752 12.6108 2.4949 8.46319Z" fill="white"/>
<mask id="mask0" mask-type="alpha" maskUnits="userSpaceOnUse" x="0" y="0" width="63" height="62">
<path d="M2.4949 8.46319C3.27249 5.30041 5.64323 2.95815 8.8066 2.18301C12.9899 1.15794 20.1832 0 31.3333 0C42.2267 0 49.3433 1.10522 53.5662 2.11199C56.9182 2.91112 59.4005 5.42331 60.1974 8.7758C61.2105 13.0379 62.3333 20.1982 62.3333 31C62.3333 41.8018 61.2105 48.9621 60.1974 53.2242C59.4005 56.5767 56.9182 59.0889 53.5662 59.888C49.3433 60.8948 42.2267 62 31.3333 62C20.1832 62 12.9899 60.8421 8.80661 59.817C5.64323 59.0419 3.27249 56.6996 2.4949 53.5368C1.4752 49.3892 0.333328 42.2362 0.333328 31C0.333328 19.7638 1.4752 12.6108 2.4949 8.46319Z" fill="white"/>
</mask>
<g mask="url(#mask0)">
<circle cx="54.3333" cy="8" r="30" fill="#EAF7EE"/>
<path d="M28.9692 39.3718H29.8753V42.9963H28.9692V39.3718Z" fill="white"/>
<path d="M32.5938 39.3718H33.4999V42.9963H32.5938V39.3718Z" fill="white"/>
<path d="M39.08 31.8978C40.9418 27.7656 42.388 22.9493 39.9428 19.1333C38.0257 16.1417 34.8838 14 31.3329 14C27.7821 14 24.6401 16.1417 22.7231 19.1333C20.2778 22.9493 21.7241 27.7656 23.5858 31.8978L26.4722 38.304C26.765 38.9539 27.4116 39.3718 28.1245 39.3718H34.5414C35.2542 39.3718 35.9009 38.9539 36.1937 38.304L39.08 31.8978Z" fill="#31B057"/>
<rect x="27.1569" y="40.5546" width="8.35159" height="7.44546" rx="1.81227" fill="#278D46"/>
<path d="M37.3363 35.7677H25.3293L26.472 38.304C26.6002 38.5884 26.7961 38.8284 27.0356 39.0083C27.3093 39.2139 27.6399 39.3412 27.9915 39.367C28.0355 39.3702 28.0798 39.3718 28.1244 39.3718H34.5412C34.5412 39.3718 34.5412 39.3718 34.5412 39.3718C34.8085 39.3718 35.0666 39.313 35.3001 39.2053C35.6893 39.0258 36.0105 38.7102 36.1935 38.304L37.3363 35.7677Z" fill="#278D46"/>
</g>
</g>
<defs>
<clipPath id="clip0">
<path d="M0.333328 0H62.3333V62H0.333328V0Z" fill="white"/>
</clipPath>
</defs>
</svg>
