<svg width="17" height="15" viewBox="0 0 17 15" fill="none" xmlns="http://www.w3.org/2000/svg">
<path d="M8.50124 14.4996C8.39157 14.5003 8.28285 14.4793 8.18132 14.4378C8.07979 14.3963 7.98744 14.3352 7.90957 14.258L1.43457 7.77465C0.622376 6.95396 0.166794 5.84595 0.166794 4.69131C0.166794 3.53667 0.622376 2.42867 1.43457 1.60798C2.25313 0.79174 3.36193 0.333374 4.51791 0.333374C5.67388 0.333374 6.78269 0.79174 7.60124 1.60798L8.50124 2.50798L9.40124 1.60798C10.2198 0.79174 11.3286 0.333374 12.4846 0.333374C13.6405 0.333374 14.7494 0.79174 15.5679 1.60798C16.3801 2.42867 16.8357 3.53667 16.8357 4.69131C16.8357 5.84595 16.3801 6.95396 15.5679 7.77465L9.09291 14.258C9.01504 14.3352 8.9227 14.3963 8.82116 14.4378C8.71963 14.4793 8.61091 14.5003 8.50124 14.4996Z" fill="#8492A6"/>
</svg>
