<svg width="24" height="24" viewBox="0 0 24 24" fill="none" xmlns="http://www.w3.org/2000/svg">
<path fill-rule="evenodd" clip-rule="evenodd" d="M3.1972 3.6434C1.80195 3.91541 1 5.15954 1 6.58105V17.419C1 18.8405 1.80195 20.0846 3.1972 20.3566C4.84689 20.6782 7.59751 21 12 21C16.4025 21 19.1531 20.6782 20.8028 20.3566C22.198 20.0846 23 18.8405 23 17.4189V6.58105C23 5.15953 22.198 3.91541 20.8028 3.6434C19.1531 3.32179 16.4025 3 12 3C7.59751 3 4.84689 3.32179 3.1972 3.6434ZM6.39645 10.2374C6.20118 10.4327 6.20118 10.7493 6.39645 10.9445L9.57843 14.1265C9.77369 14.3218 10.0903 14.3218 10.2855 14.1265C10.4808 13.9312 10.4808 13.6147 10.2855 13.4194L7.95711 11.091H14.25C15.6307 11.091 16.75 12.2103 16.75 13.591C16.75 14.9717 15.6307 16.091 14.25 16.091H12V17.091H14.25C16.183 17.091 17.75 15.524 17.75 13.591C17.75 11.658 16.183 10.091 14.25 10.091H7.95711L10.2855 7.76255C10.4808 7.56729 10.4808 7.25071 10.2855 7.05544C10.0903 6.86018 9.77369 6.86018 9.57843 7.05544L6.39645 10.2374Z" fill="#8492A6"/>
</svg>
