<svg width="375" height="261" viewBox="0 0 375 261" fill="none" xmlns="http://www.w3.org/2000/svg">
<path d="M203.449 9.81543H111.645C105.63 9.81543 100.753 14.6919 100.753 20.7074V238.547C100.753 244.563 105.63 249.439 111.645 249.439H203.449C209.464 249.439 214.341 244.563 214.341 238.547V20.7074C214.341 14.6919 209.464 9.81543 203.449 9.81543Z" fill="#F0F6F9"/>
<path d="M141.987 43.2705H117.869C114.861 43.2705 112.423 45.7088 112.423 48.7165V95.3963C112.423 98.404 114.861 100.842 117.869 100.842H141.987C144.995 100.842 147.433 98.404 147.433 95.3963V48.7165C147.433 45.7088 144.995 43.2705 141.987 43.2705Z" fill="black" fill-opacity="0.06"/>
<path d="M183.221 43.2705H159.103C156.095 43.2705 153.657 45.7088 153.657 48.7165V95.3963C153.657 98.404 156.095 100.842 159.103 100.842H183.221C186.229 100.842 188.667 98.404 188.667 95.3963V48.7165C188.667 45.7088 186.229 43.2705 183.221 43.2705Z" fill="black" fill-opacity="0.06"/>
<path d="M202.671 107.845H117.869C114.861 107.845 112.423 110.283 112.423 113.291V159.971C112.423 162.978 114.861 165.417 117.869 165.417H202.671C205.679 165.417 208.117 162.978 208.117 159.971V113.291C208.117 110.283 205.679 107.845 202.671 107.845Z" fill="black" fill-opacity="0.06"/>
<path d="M139.987 118.737H120.648C119.973 118.737 119.425 119.284 119.425 119.959V139.298C119.425 139.974 119.973 140.521 120.648 140.521H139.987C140.662 140.521 141.209 139.974 141.209 139.298V119.959C141.209 119.284 140.662 118.737 139.987 118.737Z" fill="black" fill-opacity="0.06"/>
<path d="M199.114 118.737H146.321C145.646 118.737 145.099 119.284 145.099 119.959V121.404C145.099 122.08 145.646 122.627 146.321 122.627H199.114C199.789 122.627 200.337 122.08 200.337 121.404V119.959C200.337 119.284 199.789 118.737 199.114 118.737Z" fill="black" fill-opacity="0.06"/>
<path d="M180.442 125.739H147.099C146.424 125.739 145.877 126.287 145.877 126.962V128.407C145.877 129.082 146.424 129.629 147.099 129.629H180.442C181.117 129.629 181.665 129.082 181.665 128.407V126.962C181.665 126.287 181.117 125.739 180.442 125.739Z" fill="black" fill-opacity="0.06"/>
<path d="M169.995 170.862H117.091C114.083 170.862 111.645 173.3 111.645 176.308V222.988C111.645 225.995 114.083 228.434 117.091 228.434H169.995C173.003 228.434 175.441 225.995 175.441 222.988V176.308C175.441 173.3 173.003 170.862 169.995 170.862Z" fill="black" fill-opacity="0.06"/>
<path d="M202.671 170.862H187.111C184.103 170.862 181.665 173.3 181.665 176.308V222.988C181.665 225.995 184.103 228.434 187.111 228.434H202.671C205.679 228.434 208.117 225.995 208.117 222.988V176.308C208.117 173.3 205.679 170.862 202.671 170.862Z" fill="black" fill-opacity="0.06"/>
<path d="M199.467 176.308H190.314C188.545 176.308 187.111 177.742 187.111 179.512V188.665C187.111 190.434 188.545 191.868 190.314 191.868H199.467C201.237 191.868 202.671 190.434 202.671 188.665V179.512C202.671 177.742 201.237 176.308 199.467 176.308Z" fill="black" fill-opacity="0.06"/>
<path d="M199.467 194.98H190.314C188.545 194.98 187.111 196.414 187.111 198.183V207.336C187.111 209.106 188.545 210.54 190.314 210.54H199.467C201.237 210.54 202.671 209.106 202.671 207.336V198.183C202.671 196.414 201.237 194.98 199.467 194.98Z" fill="black" fill-opacity="0.06"/>
<path d="M99.2611 216.892C109.42 222.512 95.0284 241.39 86.5624 250.126H71.1615C60.2184 245.128 40.0354 234.293 46.8443 230.942C55.3551 226.754 42.1156 222.026 38.3331 211.353C34.5506 200.681 49.5461 200.951 60.3538 200.951C71.1615 200.951 62.6502 186.901 73.9983 183.659C85.3463 180.417 81.4283 192.981 81.4283 200.951C81.4283 208.922 86.5624 209.867 99.2611 216.892Z" fill="#FF9E80"/>
<path d="M70.4472 202.417C73.3131 207.194 75.2857 233.749 79.2485 249.601H74.7902C75.466 247.439 61.6861 240.414 57.2278 237.577C52.7699 234.74 57.7681 229.877 59.5246 229.066C61.2807 228.255 44.799 220.69 47.3659 210.963C49.2702 203.748 59.2355 219.478 61.9561 212.314C63.6827 207.768 68.4208 199.04 70.4472 202.417Z" fill="white" fill-opacity="0.13"/>
<path d="M77.4257 240.82C80.6901 236.182 88.5435 226.338 93.8391 224.069M80.3296 249.871C79.4992 247.576 78.4736 244.45 77.4257 240.82L80.3296 249.871ZM76.0067 192.322C72.8995 196.78 75.7372 199.058 73.9811 207.163C72.0067 216.276 73.4736 225.767 76.0067 235.619V192.322ZM76.0067 235.619C70.2426 227.851 62.9022 220.691 51.0138 213.396L76.0067 235.619ZM76.0067 235.619C76.4736 237.435 76.952 239.179 77.4257 240.82L76.0067 235.619Z" stroke="#FBFBFB" stroke-width="0.607794" stroke-linecap="round"/>
<path d="M63.6719 210.491C51.511 217.218 68.739 239.815 78.873 250.272H97.3081C110.407 244.289 134.567 231.319 126.416 227.309C116.228 222.296 132.076 216.636 136.605 203.861C141.132 191.085 123.182 191.409 110.245 191.409C97.3081 191.409 107.496 174.591 93.9121 170.709C80.3283 166.829 85.0181 181.868 85.0181 191.409C85.0181 200.95 78.873 202.082 63.6719 210.491Z" fill="#17A0B3"/>
<path d="M98.1634 193.166C94.7328 198.883 92.3715 230.671 87.6278 249.646H92.9644C92.1557 247.058 108.651 238.649 113.987 235.253C119.324 231.857 105.535 231.35 105.535 227.005C105.535 220.237 128.864 215.039 125.792 203.396C123.513 194.758 111.584 213.588 108.327 205.013C106.26 199.571 100.589 189.123 98.1634 193.166Z" fill="white" fill-opacity="0.13"/>
<path d="M89.8092 239.133C85.9016 233.581 76.501 221.798 70.1619 219.081M86.3334 249.968C87.3274 247.22 88.5551 243.478 89.8092 239.133L86.3334 249.968ZM91.5081 181.08C95.2274 186.416 91.8302 189.142 93.9327 198.845C96.2962 209.753 94.5401 221.115 91.5081 232.907V181.08ZM91.5081 232.907C98.408 223.609 107.194 215.038 121.425 206.306L91.5081 232.907ZM91.5081 232.907C90.9489 235.082 90.3765 237.169 89.8092 239.133L91.5081 232.907Z" stroke="#FBFBFB" stroke-width="0.727545" stroke-linecap="round"/>
<path d="M258.687 239.824C258.168 239.047 255.964 230.767 255.081 226.219C253.138 227.191 248.926 227.623 246.659 227.515C247.415 231.51 250.907 239.824 250.907 239.824C250.907 239.824 255.879 239.608 258.687 239.824Z" fill="#F7B3A4"/>
<path d="M251.843 239.825L250.223 229.783C249.251 228.919 247.308 227.904 247.308 229.459C247.308 231.014 249.936 236.91 250.908 239.825H251.843Z" fill="black" fill-opacity="0.07"/>
<path d="M250.845 250.014C249.549 246.904 250.305 241.592 250.845 239.324H258.943C258.943 239.324 269.876 246.775 276.435 246.775C278.379 246.775 277.083 250.014 277.083 250.014H250.845Z" fill="#FA5C5C"/>
<path d="M262.681 243.04H265.015M264.237 244.595H267.349H264.237ZM266.571 245.762H270.85H266.571Z" stroke="white" stroke-width="0.778001" stroke-linecap="round"/>
<path d="M219.449 222.008L225.927 212.291L231.758 218.446L224.308 226.219L219.449 222.008Z" fill="#F7B3A4"/>
<path d="M229.491 213.586L220.745 222.98H219.125L226.899 211.318L229.491 213.586Z" fill="black" fill-opacity="0.08"/>
<path d="M213.942 228.486L219.773 221.036L225.604 227.19C225.604 227.19 227.346 231.903 228.843 235.613C230.473 239.653 235.322 243.387 233.702 246.95C233.208 248.037 231.111 248.57 231.111 248.57L213.942 228.486Z" fill="#FA5C5C"/>
<path d="M226.011 235.435L229.901 238.157M226.011 231.155L227.956 232.711L226.011 231.155ZM225.622 233.101L229.123 235.435L225.622 233.101Z" stroke="white" stroke-width="0.778001" stroke-linecap="round"/>
<path fill-rule="evenodd" clip-rule="evenodd" d="M225.622 73.9997C225.622 73.9997 223.677 71.5563 223.677 69.7208C223.677 67.8853 224.066 65.4419 225.622 65.4419C227.733 65.4419 230.29 68.1651 230.29 68.1651L237.681 72.444C237.292 81.0017 236.358 88.0038 232.624 88.0038C230.179 88.0038 227.877 87.5036 226.289 87.158C225.452 86.9761 224.813 86.8368 224.455 86.8368C223.029 84.9291 223.133 80.0018 225.622 73.9997ZM256.701 182.812C259.292 175.685 247.631 149.447 246.659 147.828C241.476 154.047 221.392 151.607 212.322 149.447L211.675 153.658C210.379 161.951 223.984 187.878 231.434 199.647L223.012 213.261L231.434 222.008C232.191 220.936 233.194 219.64 234.284 218.231C235.778 216.301 237.435 214.161 238.848 212.095L246.011 230.43C249.944 231.413 255.255 228.2 257.635 226.761C257.764 226.682 257.885 226.609 257.997 226.543L247.6 198.361C252.004 191.601 255.728 185.488 256.701 182.812Z" fill="#193170"/>
<path fill-rule="evenodd" clip-rule="evenodd" d="M233.422 87.9157C234.58 86.4941 235.526 84.0303 236.125 79.8351L234.958 75.9454C234.958 75.9454 233.918 74.3892 230.679 74.3892C226.437 74.3892 225.622 73.6113 225.622 73.6113C223.498 78.5686 221.39 85.5467 225.414 88.7338L224.956 93.0819L224.632 95.6735L229.491 100.856L235.646 97.2928C235.538 96.9152 235.295 96.4291 235.038 95.9165C234.782 95.4035 234.512 94.8636 234.35 94.3779C234.14 93.7482 233.602 90.1865 233.422 87.9157Z" fill="#F7AF9F"/>
<path d="M236.125 79.8351C234.569 90.7273 230.679 89.9495 226.789 89.5603C220.974 86.9427 223.288 79.0572 225.622 73.6113C225.622 73.6113 226.437 74.3892 230.679 74.3892C233.918 74.3892 235.347 75.9454 235.347 75.9454L236.125 79.8351Z" fill="white" fill-opacity="0.06"/>
<path d="M233.378 94.2288C233.378 94.2288 233.161 89.0888 233.378 88.5488C233.701 91.4642 234.025 95.0272 234.997 95.6752C234.673 96.9708 230.138 97.9426 230.462 97.6188C230.721 97.3595 233.378 94.2288 233.378 94.2288Z" fill="black" fill-opacity="0.04"/>
<path d="M276.918 107.963L270.606 118.005C270.335 118.437 270.645 118.997 271.155 118.997H276.716C276.958 118.997 277.179 118.863 277.29 118.649L280.996 111.547L282.471 108.598C282.686 108.167 282.373 107.66 281.891 107.66H277.467C277.244 107.66 277.037 107.775 276.918 107.963Z" fill="#2A2626"/>
<path d="M271.278 118.675L258.968 124.829C258.45 126.384 259.616 130.66 260.264 132.604L274.841 121.59C279.376 118.35 281.643 111.548 280.671 111.548C279.894 111.548 274.085 116.299 271.278 118.675Z" fill="#F7B3A4"/>
<path d="M261.799 126.516L260.632 124.182L271.135 118.736L261.799 126.516Z" fill="white" fill-opacity="0.06"/>
<path d="M224.956 210.995L240.504 187.672L232.406 164.349" stroke="black" stroke-opacity="0.07" stroke-width="0.647862" stroke-linecap="round"/>
<path d="M240.829 187.67L232.406 199.008C228.519 192.788 217.181 173.093 213.942 163.375C213.942 163.375 224.909 162.815 230.463 166.29C238.328 171.213 240.829 187.67 240.829 187.67Z" fill="black" fill-opacity="0.04"/>
<path d="M219.773 150.743C220.55 166.033 229.383 187.995 233.702 197.065L231.457 199.647L229.512 197.065C208.133 159.489 211.135 156.573 212.323 150.743H219.773Z" fill="black" fill-opacity="0.07"/>
<path fill-rule="evenodd" clip-rule="evenodd" d="M224.632 94.0552L215.562 95.675L215.561 95.6754C211.89 98.0517 203.706 108.05 200.337 129.04C203.145 135.842 209.796 150.808 213.942 156.25L220.097 151.715L220.069 151.642L220.421 151.391C236.747 154.242 244.931 150.203 246.983 147.828C246.136 146.698 245.443 142.569 244.935 138.101L245.039 138.11L260.588 133.899C263.828 127.745 262.208 123.209 259.616 122.561L246.983 124.181C245.554 113.223 243.3 104.077 240.196 98.7664C238.311 95.2367 236.207 93.5054 234.569 95.0065C229.985 100.608 226.692 96.5767 224.735 94.1808L224.632 94.0552Z" fill="#2357DD"/>
<path d="M212.97 151.391C211.934 151.132 204.116 136.166 200.337 128.716C200.855 132.344 209.083 149.124 213.942 156.25L215.885 154.63C215.346 153.658 214.007 151.65 212.97 151.391Z" fill="#070707" fill-opacity="0.06"/>
<path d="M215.561 95.6753C211.89 98.0507 203.706 108.05 200.337 129.04C203.144 135.843 209.796 150.808 213.942 156.25L220.097 151.715L211.026 127.745L218.153 108.633" stroke="black" stroke-opacity="0.06" stroke-width="0.647862"/>
<path d="M214.914 158.517L214.59 155.602L219.449 152.039L222.04 155.602C221.781 157.416 219.125 160.677 217.829 162.08L214.914 158.517Z" fill="#F7B3A4"/>
<path d="M217.505 157.222L214.59 155.926L214.914 158.518L217.829 162.081L218.801 160.461L217.505 157.222Z" fill="black" fill-opacity="0.06"/>
<path d="M216.857 163.7C218.369 162.189 221.652 158.388 222.688 155.278" stroke="white" stroke-opacity="0.13" stroke-width="0.323931" stroke-linecap="round"/>
<path d="M245.039 138.11C244.283 126.34 244.067 114.787 239.532 103.773" stroke="black" stroke-opacity="0.03" stroke-width="0.647862"/>
<path d="M233.054 219.74L231.434 217.797C231.434 217.797 248.692 197.69 254.109 180.221C255.817 174.714 242.772 150.095 242.772 150.095C245.687 149.447 244.499 149.771 246.983 148.151C250.438 157.761 257.349 177.888 257.349 181.516C257.349 185.144 241.152 208.51 233.054 219.74Z" fill="white" fill-opacity="0.03"/>
<path d="M237.265 191.883L233.054 167.588L240.181 187.348L237.265 191.883Z" fill="black" fill-opacity="0.04"/>
<path d="M252.166 225.572L245.364 201.601L247.631 198.686L257.673 223.628L252.166 225.572Z" fill="black" fill-opacity="0.06"/>
<path d="M244.068 127.097C243.29 133.057 245.471 143.401 246.659 147.829C242.253 151.716 231.758 152.148 227.223 151.716C227.223 151.716 232.082 148.8 234.35 146.532C236.617 144.265 240.828 141.35 241.8 130.336C242.297 124.698 240.828 109.82 240.18 104.098C241.8 108.957 244.845 121.136 244.068 127.097Z" fill="black" fill-opacity="0.03"/>
<path d="M26.0649 249.439H288.64" stroke="black" stroke-width="1.556"/>
<path d="M347.379 94.2694H305.185H284.217C283.656 94.2694 283.138 94.5714 282.862 95.0601L280.763 98.7743C280.211 99.7499 278.84 99.84 278.166 98.9451L275.108 94.8892C274.815 94.4988 274.354 94.2694 273.866 94.2694H262.577C261.718 94.2694 261.021 93.5731 261.021 92.7137V40.9351C261.021 40.0756 261.718 39.3789 262.577 39.3789H347.379C348.238 39.3789 348.935 40.0756 348.935 40.9351V92.7137C348.935 93.5731 348.238 94.2694 347.379 94.2694Z" fill="#F3F3F3"/>
<path d="M285.917 46.3809H264.911V86.0588H285.917V46.3809Z" fill="white" fill-opacity="0.97"/>
<path d="M282.027 78.2788H268.801C268.371 78.2788 268.023 78.6271 268.023 79.0568V82.1688C268.023 82.5985 268.371 82.9468 268.801 82.9468H282.027C282.457 82.9468 282.805 82.5985 282.805 82.1688V79.0568C282.805 78.6271 282.457 78.2788 282.027 78.2788Z" fill="#1999AB"/>
<path d="M282.805 62.7178H268.023V75.9438H282.805V62.7178Z" fill="#DFF8F9"/>
<path d="M282.805 50.271H268.023V60.385H282.805V50.271Z" fill="#DFF8F9"/>
<path d="M275.414 72.8326C277.347 72.8326 278.915 71.2651 278.915 69.3316C278.915 67.398 277.347 65.8306 275.414 65.8306C273.48 65.8306 271.913 67.398 271.913 69.3316C271.913 71.2651 273.48 72.8326 275.414 72.8326Z" fill="#FF9E80"/>
<path d="M334.93 46.3809H289.028C288.599 46.3809 288.25 46.7292 288.25 47.1589V65.0528C288.25 65.4825 288.599 65.8308 289.028 65.8308H334.93C335.36 65.8308 335.708 65.4825 335.708 65.0528V47.1589C335.708 46.7292 335.36 46.3809 334.93 46.3809Z" fill="white"/>
<path d="M302.254 67.3867H289.028C288.599 67.3867 288.25 67.735 288.25 68.1647V85.2807C288.25 85.7104 288.599 86.0587 289.028 86.0587H302.254C302.684 86.0587 303.032 85.7104 303.032 85.2807V68.1647C303.032 67.735 302.684 67.3867 302.254 67.3867Z" fill="white"/>
<path d="M318.593 67.3867H305.367C304.937 67.3867 304.589 67.735 304.589 68.1647V85.2807C304.589 85.7104 304.937 86.0587 305.367 86.0587H318.593C319.022 86.0587 319.371 85.7104 319.371 85.2807V68.1647C319.371 67.735 319.022 67.3867 318.593 67.3867Z" fill="white"/>
<path d="M334.93 67.3867H321.704C321.275 67.3867 320.926 67.735 320.926 68.1647V85.2807C320.926 85.7104 321.275 86.0587 321.704 86.0587H334.93C335.36 86.0587 335.708 85.7104 335.708 85.2807V68.1647C335.708 67.735 335.36 67.3867 334.93 67.3867Z" fill="white"/>
</svg>
