<svg width="60" height="60" viewBox="0 0 60 60" fill="none" xmlns="http://www.w3.org/2000/svg">
<path d="M0.0509491 14.9018C0.140489 13.5774 0.773445 12.4 1.86839 11.6477C4.22775 10.0269 9.92392 7.02356 22.8963 3.55151C35.8686 0.0794563 42.305 -0.164507 45.1596 0.0608409C46.4844 0.165421 47.6219 0.868977 48.3624 1.97123C50.0099 4.42368 53.1133 10.2696 56.5115 22.9376C59.704 34.839 60.1078 41.3958 59.9798 44.5893C59.9116 46.2913 59.0512 47.7798 57.6097 48.6899C54.905 50.3974 49.0183 53.3264 37.1037 56.5154C25.1891 59.7043 18.625 60.1077 15.4279 59.9798C13.724 59.9117 12.2338 59.0523 11.3228 57.6124C9.61337 54.9106 6.68101 49.0306 3.4885 37.1293C0.0903319 24.4613 -0.148271 17.8485 0.0509491 14.9018Z" fill="#E0E6ED"/>
<path d="M5.00335 7.70168C5.43407 6.4407 6.35306 5.46331 7.60904 5.01822C10.3141 4.05963 16.6067 2.62744 30.0602 2.62744C43.5138 2.62744 49.8064 4.05963 52.5114 5.01822C53.7674 5.46331 54.6864 6.4407 55.1171 7.70168C56.0749 10.5058 57.5602 16.9747 57.5602 30.1274C57.5602 42.4837 56.2493 48.9411 55.2964 52.0028C54.7883 53.6354 53.5682 54.8555 51.9355 55.3637C48.8738 56.3166 42.4165 57.6274 30.0602 57.6274C17.704 57.6274 11.2466 56.3166 8.18487 55.3637C6.55223 54.8555 5.33212 53.6354 4.82398 52.0028C3.87107 48.9411 2.56021 42.4837 2.56021 30.1274C2.56021 16.9747 4.04552 10.5058 5.00335 7.70168Z" fill="#C0CCDA"/>
<path d="M38.4126 29.1852L47.7175 40.2585C48.8741 41.6349 49.5082 43.3752 49.5082 45.173C49.5082 46.7103 48.1701 47.9566 46.5195 47.9566H13.6434C11.9928 47.9566 10.6547 46.7103 10.6547 45.173C10.6547 43.3559 11.178 41.5771 12.1622 40.0495L17.0581 32.45C18.2189 30.6481 21.0229 30.6481 22.1837 32.45L25.9931 38.363L33.7053 29.1852C34.9019 27.7612 37.216 27.7612 38.4126 29.1852Z" fill="#EFF2F7"/>
<circle cx="17.1303" cy="17.1975" r="4.85669" fill="#EFF2F7"/>
</svg>
