<svg width="14" height="18" viewBox="0 0 14 18" fill="none" xmlns="http://www.w3.org/2000/svg">
<path fill-rule="evenodd" clip-rule="evenodd" d="M2.30937 2.59562C3.55771 1.35976 5.24338 0.666538 7 0.666626C8.75662 0.666538 10.4423 1.35976 11.6906 2.59562C12.939 3.83148 13.6491 5.51009 13.6667 7.26663C13.6667 11.8333 7.83333 16.9166 7.54167 17.1333C7.39072 17.2624 7.19863 17.3333 7 17.3333C6.80137 17.3333 6.60928 17.2624 6.45833 17.1333L6.45697 17.1321C6.18777 16.8988 0.333334 11.8253 0.333334 7.26663C0.3509 5.51009 1.06103 3.83148 2.30937 2.59562ZM5.37959 9.34175C5.85923 9.66223 6.42314 9.83329 7 9.83329C7.77355 9.83329 8.51541 9.526 9.0624 8.97902C9.60938 8.43204 9.91667 7.69017 9.91667 6.91663C9.91667 6.33976 9.74561 5.77586 9.42512 5.29621C9.10463 4.81657 8.64911 4.44273 8.11616 4.22198C7.58321 4.00122 6.99676 3.94346 6.43099 4.056C5.86521 4.16854 5.34551 4.44633 4.93761 4.85423C4.5297 5.26214 4.25192 5.78183 4.13938 6.34761C4.02684 6.91339 4.0846 7.49984 4.30535 8.03279C4.52611 8.56574 4.89994 9.02126 5.37959 9.34175ZM8.25 6.91663C8.25 7.60698 7.69036 8.16663 7 8.16663C6.30964 8.16663 5.75 7.60698 5.75 6.91663C5.75 6.22627 6.30964 5.66663 7 5.66663C7.69036 5.66663 8.25 6.22627 8.25 6.91663Z" fill="#8492A6"/>
</svg>
