<svg width="24" height="24" viewBox="0 0 24 24" fill="none" xmlns="http://www.w3.org/2000/svg">
<g id="Icon / News">
<path id="Union" fill-rule="evenodd" clip-rule="evenodd" d="M4 2C2.89543 2 2 2.89543 2 4V20C2 21.1046 2.89543 22 4 22H16H21C22.1046 22 23 21.1046 23 20V11C23 9.89543 22.1046 9 21 9H18V4C18 2.89543 17.1046 2 16 2H4ZM18 12V18.5C18 19.3284 18.6716 20 19.5 20C20.3284 20 21 19.3284 21 18.5V12C21 11.4477 20.5523 11 20 11H19C18.4477 11 18 11.4477 18 12Z" fill="#8492A6"/>
<rect id="Rectangle 3" x="4" y="5" width="4" height="6" rx="1" fill="#E5E9F2"/>
<rect id="Rectangle 3_2" x="10" y="5" width="5" height="2" rx="1" fill="#E5E9F2"/>
<rect id="Rectangle 3_3" x="10" y="9" width="5" height="2" rx="1" fill="#E5E9F2"/>
<rect id="Rectangle 3_4" x="4" y="13" width="11" height="2" rx="1" fill="#E5E9F2"/>
<rect id="Rectangle 3_5" x="4" y="17" width="11" height="2" rx="1" fill="#E5E9F2"/>
</g>
</svg>
