<svg width="24" height="24" viewBox="0 0 24 24" fill="none" xmlns="http://www.w3.org/2000/svg">
<circle cx="12" cy="12" r="12" fill="#FFCB3F"/>
<path fill-rule="evenodd" clip-rule="evenodd" d="M6 7.20476C6 6.53939 6.53939 6 7.20476 6H14.4333C15.0987 6 15.6381 6.53939 15.6381 7.20476V10.2167H17.4451C18.1104 10.2167 18.6498 10.756 18.6498 11.4214V16.8428C18.6498 17.5082 18.1104 18.0476 17.4451 18.0476H14.4386L14.4333 18.0476H7.20476C6.53939 18.0476 6 17.5082 6 16.8429V7.20476ZM15.6381 12.0076V15.9592C15.6487 16.4491 16.0491 16.8429 16.5415 16.8429C17.0405 16.8429 17.445 16.4383 17.445 15.9393V12.0238C17.445 11.6911 17.1753 11.4214 16.8426 11.4214H16.2403C15.913 11.4214 15.6467 11.6824 15.6381 12.0076ZM7.80697 7.80716C7.47429 7.80716 7.20459 8.07685 7.20459 8.40954V10.8191C7.20459 11.1518 7.47429 11.4214 7.80697 11.4214H9.01173C9.34442 11.4214 9.61411 11.1518 9.61411 10.8191V8.40954C9.61411 8.07685 9.34442 7.80716 9.01173 7.80716H7.80697ZM11.4217 7.80716C11.089 7.80716 10.8193 8.07685 10.8193 8.40954C10.8193 8.74223 11.089 9.01192 11.4217 9.01192H13.2289C13.5615 9.01192 13.8312 8.74223 13.8312 8.40954C13.8312 8.07685 13.5615 7.80716 13.2289 7.80716H11.4217ZM10.8193 10.819C10.8193 10.4863 11.089 10.2166 11.4217 10.2166H13.2289C13.5615 10.2166 13.8312 10.4863 13.8312 10.819C13.8312 11.1517 13.5615 11.4214 13.2289 11.4214H11.4217C11.089 11.4214 10.8193 11.1517 10.8193 10.819ZM7.80697 12.6262C7.47428 12.6262 7.20459 12.8959 7.20459 13.2286C7.20459 13.5613 7.47428 13.831 7.80697 13.831H13.2284C13.5611 13.831 13.8308 13.5613 13.8308 13.2286C13.8308 12.8959 13.5611 12.6262 13.2284 12.6262H7.80697ZM7.20459 15.6381C7.20459 15.3054 7.47428 15.0357 7.80697 15.0357H13.2284C13.5611 15.0357 13.8308 15.3054 13.8308 15.6381C13.8308 15.9708 13.5611 16.2405 13.2284 16.2405H7.80697C7.47428 16.2405 7.20459 15.9708 7.20459 15.6381Z" fill="white"/>
</svg>
