<svg width="375" height="224" viewBox="0 0 375 224" fill="none" xmlns="http://www.w3.org/2000/svg">
<path d="M87.65 203.893H270.204H278.897C300.267 203.893 332.685 181.436 327.433 135.797C323.534 101.917 299.905 122.215 297.913 95.2302C295.921 68.2455 298.637 39.2688 261.873 41.2608C225.109 43.2528 215.691 46.3317 170.596 24.599C125.501 2.86656 98.5163 49.5917 91.4533 76.033C84.39 102.474 68.9961 94.6868 58.6732 117.687C48.3503 140.687 77.327 134.53 53.6023 162.782C34.6224 185.384 68.3926 199.607 87.65 203.893Z" fill="white" fill-opacity="0.2"/>
<path d="M129.373 203.503H268.105H274.711C290.951 203.503 315.587 186.437 311.596 151.754C308.633 126.006 290.676 141.432 289.162 120.925C287.648 100.418 289.713 78.3968 261.774 79.9109C233.835 81.4246 226.678 83.7643 192.408 67.2486C158.137 50.733 137.631 86.2419 132.263 106.336C126.896 126.43 115.197 120.512 107.352 137.991C99.5066 155.47 121.528 150.791 103.498 172.261C89.0743 189.438 114.738 200.246 129.373 203.503Z" fill="white" fill-opacity="0.2"/>
<path d="M152.248 202.826H249.543H254.176C265.565 202.826 282.843 190.857 280.044 166.534C277.966 148.476 265.373 159.294 264.311 144.912C263.249 130.531 264.697 115.087 245.103 116.148C225.509 117.21 220.489 118.851 196.455 107.268C172.421 95.6857 158.039 120.588 154.275 134.681C150.51 148.773 142.306 144.623 136.804 156.881C131.302 169.14 146.746 165.858 134.102 180.915C123.986 192.961 141.984 200.542 152.248 202.826Z" fill="#999DF9" fill-opacity="0.07"/>
<path d="M206.274 115.876C198.74 119.208 195.68 138.435 196.042 146.403L207.27 151.655L211.617 203.995H266.038C266.038 203.995 262.549 188.485 261.24 178.64C259.795 167.773 256.621 141.593 256.621 141.593L261.149 156.443C261.149 156.443 266.362 156.183 269.298 154.632C272.418 152.986 275.637 148.656 275.637 148.656C269.932 117.585 252.607 113.925 240.775 111.45C224.403 119.564 217.171 114.831 215.601 111.45L206.274 115.876Z" fill="#FFCB3F"/>
<path fill-rule="evenodd" clip-rule="evenodd" d="M219.405 105.44C215.483 103.104 212.829 96.1588 216.235 81.8281C219.676 72.2292 236.972 73.2366 238.058 84.284C238.787 91.69 236.862 96.8901 234.1 100.379L233.712 109.82L240.956 111.45L239.326 112.175C239.326 112.175 232.763 116.013 228.098 116.34C227.603 116.375 227.123 116.416 226.654 116.456C223.463 116.73 220.84 116.955 218.318 114.71C218.072 114.491 217.763 114.248 217.44 113.995C216.224 113.04 214.822 111.939 215.964 111.45C217.231 110.907 219.405 108.915 219.405 108.915V105.44ZM196.313 146.301L192.872 159.884L178.294 127.749C177.772 125.325 178.045 123.425 178.293 121.697C178.519 120.125 178.725 118.696 178.294 117.144C177.962 115.951 172.951 107.002 169.872 103.742C166.793 100.482 172.769 114.246 172.769 114.246L167.336 119.86L171.683 127.749C171.952 129.011 172.258 130.528 172.603 132.237V132.237C176.058 149.338 183.393 185.64 195.588 177.149C202.899 172.06 204.38 165.561 206.7 155.387C206.966 154.219 207.243 153.003 207.541 151.735L196.313 146.301ZM263.231 156.183L264.861 170.128L236.066 204.176L250.011 203.632L264.861 190.853L275.317 179.345C277.244 177.224 278.143 174.366 277.779 171.524L275.184 151.293V149.199C275.184 149.199 271.586 153.208 269.117 154.451C266.977 155.529 263.231 156.183 263.231 156.183Z" fill="white"/>
<path d="M219.495 108.089V105.553C224.131 108.451 229.757 104.829 231.991 102.655V105.553C231.327 106.761 229.165 109.429 225.833 110.443C222.501 111.457 220.219 110.02 219.495 109.175V108.089Z" fill="black" fill-opacity="0.03"/>
<path d="M219.494 108.994L215.872 111.711C215.582 113.449 219.615 115.574 221.667 116.419C221.667 116.419 223.315 116.199 224.022 115.514C224.545 115.007 224.927 113.884 224.927 113.884C224.686 113.824 221.342 113.304 220.037 113.16C218.734 113.015 218.951 110.986 219.494 108.994Z" fill="black" fill-opacity="0.04"/>
<path d="M232.171 102.655L233.982 100.482L233.62 109.899L237.786 110.805C237.786 110.805 231.809 114.655 231.809 112.254C231.809 110.805 232.171 102.655 232.171 102.655Z" fill="black" fill-opacity="0.04"/>
<path d="M173.493 133.08L171.864 128.191C171.864 128.191 173.704 137.826 175.123 143.947C176.476 149.779 178.927 158.798 178.927 158.798V155.175L176.753 146.845L173.493 133.08Z" fill="black" fill-opacity="0.06"/>
<path d="M194.14 161.333L200.478 148.294L196.313 146.483L192.872 160.066L192.329 161.696C192.329 161.696 192.677 163.705 193.234 163.144C193.792 162.584 194.14 161.333 194.14 161.333Z" fill="white" fill-opacity="0.1"/>
<path d="M266.038 155.176L263.14 156.082L264.951 170.027L240.14 199.185C240.14 199.185 263.865 180.712 267.849 170.027C268.925 167.142 266.038 155.176 266.038 155.176Z" fill="white" fill-opacity="0.08"/>
<path d="M205.911 131.632L207.541 151.554L203.738 150.105L205.911 131.632Z" fill="black" fill-opacity="0.06"/>
<path d="M216.597 81.285C211.707 99.3953 217.412 106.379 222.845 106.379C226.95 106.862 239.762 101.608 238.058 84.2843C236.971 73.2369 220.038 71.6865 216.597 81.285Z" fill="white" fill-opacity="0.07"/>
<path d="M230.814 92.7961C229.003 96.3389 229.817 83.3787 229.817 83.3787L230.814 81.4658L237.877 83.3787C239.597 91.9701 236.397 98.2485 234.526 99.5766V94.6866C235.009 92.2717 234.002 91.0938 233.712 90.0796C233.422 89.0654 232.625 89.2536 230.814 92.7961Z" fill="#1B1472"/>
<path fill-rule="evenodd" clip-rule="evenodd" d="M230.497 84.1856C233.601 84.2576 236.471 84.0103 238.42 83.198C239.507 76.4971 234.617 71.2452 225.743 72.1507C222.967 72.4343 220.539 74.2442 218.82 76.3614C217.529 76.044 216.203 75.8846 214.877 75.9544C208.457 76.2923 209.866 78.0022 211.72 80.2498C212.25 80.8933 212.817 81.581 213.247 82.2929L223.055 83.5414C224.664 83.7642 226.357 83.952 228.035 84.069L230.09 84.2853L230.497 84.1856Z" fill="#FFCB3F"/>
<path d="M214.877 75.9537C206.618 76.3885 211.429 79.0319 213.361 82.2314L223.207 83.5602L230.09 84.2846L231.357 83.9751C231.357 83.9751 223.135 75.519 214.877 75.9537Z" fill="white" fill-opacity="0.12"/>
<path d="M209.533 151.916C208.609 144.301 206.273 133.262 206.273 133.262L209.896 182.342C209.896 182.342 211.518 176.398 210.982 172.2C209.896 163.688 210.463 159.572 209.533 151.916Z" fill="white" fill-opacity="0.13"/>
<path d="M264.59 155.719L256.802 141.774L261.33 156.443L264.59 155.719Z" fill="black" fill-opacity="0.05"/>
<path d="M257.346 179.263L256.621 141.955L260.787 175.097L257.346 179.263Z" fill="black" fill-opacity="0.08"/>
<path d="M265.858 201.721L263.684 191.76L260.968 194.477V201.721H265.858Z" fill="black" fill-opacity="0.04"/>
<path d="M275.637 173.104C277.032 164.611 273.283 151.191 273.283 151.191L275.094 149.38L277.81 173.104C278.1 176.147 274.913 180.047 273.283 181.617C273.283 181.617 275.078 176.508 275.637 173.104Z" fill="black" fill-opacity="0.05"/>
<path d="M252.456 199.909L250.282 203.531L263.865 191.579L271.472 183.429L267.668 185.783L252.456 199.909Z" fill="black" fill-opacity="0.04"/>
<path d="M207.36 151.734C205.549 167.49 199.392 174.372 196.494 176.364C196.494 176.364 201.157 169.394 203.014 164.411C204.883 159.394 206.274 151.191 206.274 151.191L207.36 151.734Z" fill="black" fill-opacity="0.06"/>
<path d="M192.872 176.727C185.773 176.148 179.893 160.911 177.841 153.365C181.173 170.606 187.801 177.995 190.699 178.357C192.872 178.937 194.985 177.512 195.77 176.727H192.872Z" fill="black" fill-opacity="0.03"/>
<path d="M183.636 143.766C181.519 138.206 178.927 129.277 178.927 129.277L192.872 159.884L192.329 161.695C192.329 161.695 186.6 151.553 183.636 143.766Z" fill="white" fill-opacity="0.16"/>
<path d="M254.991 121.308C253.905 119.678 240.684 113.762 241.227 111.529C263.503 115.151 270.385 129.156 272.015 136.159C264.771 126.742 262.054 127.466 254.991 121.308Z" fill="black" fill-opacity="0.08"/>
<path d="M207.179 117.687C202.977 120.44 198.063 137.669 196.132 145.94C196.856 125.511 202.712 117.747 205.368 116.419L215.147 111.711L216.415 113.16C215.087 113.522 211.38 114.935 207.179 117.687Z" fill="black" fill-opacity="0.06"/>
<path d="M178.565 84.3633H136.549C133.548 84.3633 131.116 86.7958 131.116 89.7964V145.939C131.116 148.94 133.548 151.372 136.549 151.372H178.565C181.566 151.372 183.999 148.94 183.999 145.939V89.7964C183.999 86.7958 181.566 84.3633 178.565 84.3633Z" fill="white" fill-opacity="0.61"/>
<path d="M155.021 95.9536H137.272C136.672 95.9536 136.186 96.4401 136.186 97.0402V114.789C136.186 115.389 136.672 115.875 137.272 115.875H155.021C155.621 115.875 156.107 115.389 156.107 114.789V97.0402C156.107 96.4401 155.621 95.9536 155.021 95.9536Z" fill="#CCF0F5"/>
<path d="M151.399 104.104C151.399 103 150.865 101.94 149.914 101.159C148.963 100.378 147.673 99.939 146.328 99.939C144.983 99.939 143.693 100.378 142.743 101.159C141.792 101.94 141.257 103 141.257 104.104H146.328H151.399Z" fill="#E49F78"/>
<path d="M151.399 107.908C151.399 108.869 150.865 109.79 149.914 110.469C148.963 111.148 147.673 111.53 146.328 111.53C144.983 111.53 143.693 111.148 142.742 110.469C141.792 109.79 141.257 108.869 141.257 107.908H146.328H151.399Z" fill="#E49F78"/>
<path d="M151.037 105.373H141.619C141.419 105.373 141.257 105.535 141.257 105.735V106.459C141.257 106.659 141.419 106.821 141.619 106.821H151.037C151.237 106.821 151.399 106.659 151.399 106.459V105.735C151.399 105.535 151.237 105.373 151.037 105.373Z" fill="#836F6F"/>
<path d="M151.218 104.648H141.438C141.338 104.648 141.257 104.729 141.257 104.829C141.257 104.929 141.338 105.01 141.438 105.01H151.218C151.318 105.01 151.399 104.929 151.399 104.829C151.399 104.729 151.318 104.648 151.218 104.648Z" fill="#F9CB70"/>
<path d="M177.841 95.9546H160.092C159.492 95.9546 159.006 96.4411 159.006 97.0412V114.79C159.006 115.39 159.492 115.876 160.092 115.876H177.841C178.441 115.876 178.927 115.39 178.927 114.79V97.0412C178.927 96.4411 178.441 95.9546 177.841 95.9546Z" fill="#FAE5DA"/>
<path d="M174.218 104.105C174.218 103 173.684 101.941 172.733 101.16C171.782 100.379 170.492 99.9395 169.147 99.9395C167.802 99.9395 166.512 100.379 165.561 101.16C164.61 101.941 164.076 103 164.076 104.105H169.147H174.218Z" fill="#F3B18B"/>
<path d="M174.218 107.908C174.218 108.869 173.684 109.79 172.733 110.469C171.782 111.148 170.492 111.53 169.147 111.53C167.802 111.53 166.512 111.148 165.561 110.469C164.61 109.79 164.076 108.869 164.076 107.908H169.147H174.218Z" fill="#F3B18B"/>
<path d="M173.856 105.373H164.438C164.238 105.373 164.076 105.535 164.076 105.735V106.459C164.076 106.659 164.238 106.821 164.438 106.821H173.856C174.056 106.821 174.218 106.659 174.218 106.459V105.735C174.218 105.535 174.056 105.373 173.856 105.373Z" fill="#EB6F3B"/>
<path d="M174.037 104.648H164.257C164.157 104.648 164.076 104.729 164.076 104.829C164.076 104.929 164.157 105.01 164.257 105.01H174.037C174.137 105.01 174.218 104.929 174.218 104.829C174.218 104.729 174.137 104.648 174.037 104.648Z" fill="#F9CB70"/>
<path d="M174.037 107.183H164.257C164.157 107.183 164.076 107.264 164.076 107.364C164.076 107.464 164.157 107.545 164.257 107.545H174.037C174.137 107.545 174.218 107.464 174.218 107.364C174.218 107.264 174.137 107.183 174.037 107.183Z" fill="#F98970"/>
<path d="M155.021 119.859H137.273C136.673 119.859 136.186 120.346 136.186 120.946V138.694C136.186 139.294 136.673 139.781 137.273 139.781H155.021C155.621 139.781 156.108 139.294 156.108 138.694V120.946C156.108 120.346 155.621 119.859 155.021 119.859Z" fill="#F9CEE8"/>
<path d="M151.399 128.009C151.399 126.905 150.865 125.845 149.914 125.064C148.963 124.283 147.673 123.844 146.328 123.844C144.983 123.844 143.693 124.283 142.743 125.064C141.792 125.845 141.257 126.905 141.257 128.009H146.328H151.399Z" fill="#E49F78"/>
<path d="M151.399 131.812C151.399 132.773 150.865 133.694 149.914 134.373C148.963 135.053 147.673 135.434 146.328 135.434C144.983 135.434 143.693 135.053 142.743 134.373C141.792 133.694 141.257 132.773 141.257 131.812H146.328H151.399Z" fill="#E49F78"/>
<path d="M151.037 129.277H141.62C141.419 129.277 141.257 129.439 141.257 129.639V130.363C141.257 130.564 141.419 130.726 141.62 130.726H151.037C151.237 130.726 151.399 130.564 151.399 130.363V129.639C151.399 129.439 151.237 129.277 151.037 129.277Z" fill="#836F6F"/>
<path d="M151.218 128.553H141.438C141.338 128.553 141.257 128.634 141.257 128.734V128.734C141.257 128.834 141.338 128.915 141.438 128.915H151.218C151.318 128.915 151.399 128.834 151.399 128.734V128.734C151.399 128.634 151.318 128.553 151.218 128.553Z" fill="#F9CB70"/>
<path d="M177.841 119.859H160.092C159.492 119.859 159.006 120.346 159.006 120.946V138.694C159.006 139.294 159.492 139.781 160.092 139.781H177.841C178.441 139.781 178.927 139.294 178.927 138.694V120.946C178.927 120.346 178.441 119.859 177.841 119.859Z" fill="#CCF0F5"/>
<path d="M174.218 128.009C174.218 126.904 173.684 125.845 172.733 125.063C171.782 124.282 170.492 123.843 169.147 123.843C167.802 123.843 166.512 124.282 165.561 125.063C164.61 125.845 164.076 126.904 164.076 128.009H169.147H174.218Z" fill="#F3B18B"/>
<path d="M174.218 131.812C174.218 132.772 173.684 133.693 172.733 134.373C171.782 135.052 170.492 135.434 169.147 135.434C167.802 135.434 166.512 135.052 165.561 134.373C164.61 133.693 164.076 132.772 164.076 131.812H169.147H174.218Z" fill="#F3B18B"/>
<path d="M173.856 129.277H164.438C164.238 129.277 164.076 129.439 164.076 129.639V130.363C164.076 130.564 164.238 130.726 164.438 130.726H173.856C174.056 130.726 174.218 130.564 174.218 130.363V129.639C174.218 129.439 174.056 129.277 173.856 129.277Z" fill="#EB6F3B"/>
<path d="M174.037 128.552H164.257C164.157 128.552 164.076 128.633 164.076 128.733C164.076 128.833 164.157 128.914 164.257 128.914H174.037C174.137 128.914 174.218 128.833 174.218 128.733C174.218 128.633 174.137 128.552 174.037 128.552Z" fill="#F9CB70"/>
<path d="M174.037 131.087H164.257C164.157 131.087 164.076 131.168 164.076 131.268C164.076 131.368 164.157 131.449 164.257 131.449H174.037C174.137 131.449 174.218 131.368 174.218 131.268C174.218 131.168 174.137 131.087 174.037 131.087Z" fill="#F98970"/>
<path d="M181.1 154.27H134.013C132.412 154.27 131.115 155.567 131.115 157.168V166.585C131.115 168.186 132.412 169.483 134.013 169.483H181.1C182.7 169.483 183.998 168.186 183.998 166.585V157.168C183.998 155.567 182.7 154.27 181.1 154.27Z" fill="#2357DD"/>
<path d="M170.566 160.186H149.98C149.164 160.186 148.501 160.848 148.501 161.665C148.501 162.482 149.164 163.144 149.98 163.144H170.566C171.383 163.144 172.045 162.482 172.045 161.665C172.045 160.848 171.383 160.186 170.566 160.186Z" fill="white" fill-opacity="0.58"/>
<path d="M145.935 160.186H142.736C141.919 160.186 141.257 160.848 141.257 161.665C141.257 162.482 141.919 163.144 142.736 163.144H145.935C146.752 163.144 147.414 162.482 147.414 161.665C147.414 160.848 146.752 160.186 145.935 160.186Z" fill="white" fill-opacity="0.58"/>
<path d="M204.282 71.7937C206.541 71.7937 208.373 69.962 208.373 67.7025C208.373 65.443 206.541 63.6113 204.282 63.6113C202.022 63.6113 200.191 65.443 200.191 67.7025C200.191 69.962 202.022 71.7937 204.282 71.7937Z" stroke="white" stroke-width="1.41906"/>
<path d="M170.596 61.4594C171.349 61.4594 171.96 60.8489 171.96 60.0958C171.96 59.3427 171.349 58.7322 170.596 58.7322C169.843 58.7322 169.233 59.3427 169.233 60.0958C169.233 60.8489 169.843 61.4594 170.596 61.4594Z" stroke="white" stroke-width="0.473613"/>
<path d="M196.675 105.905C198.37 105.905 199.743 104.531 199.743 102.837C199.743 101.142 198.37 99.7686 196.675 99.7686C194.981 99.7686 193.607 101.142 193.607 102.837C193.607 104.531 194.981 105.905 196.675 105.905Z" stroke="white" stroke-width="1.06563"/>
<path d="M138.721 79.1433C140.039 79.1433 141.108 78.0749 141.108 76.7569C141.108 75.439 140.039 74.3706 138.721 74.3706C137.403 74.3706 136.335 75.439 136.335 76.7569C136.335 78.0749 137.403 79.1433 138.721 79.1433Z" stroke="white" stroke-width="0.828822"/>
<path d="M170.092 79.292L173.856 72.7725L177.62 79.292H170.092Z" stroke="white" stroke-width="1.00643"/>
<path d="M202.183 91.5237L203.92 88.5146L205.657 91.5237H202.183Z" stroke="white" stroke-width="0.464505"/>
<path d="M239.128 71.2396L240.865 68.2305L242.602 71.2396H239.128Z" stroke="white" stroke-width="0.464505"/>
</svg>
