<svg width="40" height="40" viewBox="0 0 40 40" fill="none" xmlns="http://www.w3.org/2000/svg">
<path d="M1.01786 7.19371C1.63101 3.99499 4.00041 1.64743 7.19867 1.03186C10.0006 0.492581 14.1587 0 20 0C25.6336 0 29.7015 0.458173 32.4973 0.974534C35.8859 1.60039 38.3812 4.11911 39.0102 7.50711C39.5328 10.3217 40 14.4032 40 20C40 25.5968 39.5328 29.6783 39.0102 32.4929C38.3812 35.8809 35.8859 38.3996 32.4973 39.0255C29.7015 39.5418 25.6336 40 20 40C14.1587 40 10.0006 39.5074 7.19867 38.9681C4.00041 38.3526 1.63101 36.005 1.01786 32.8063C0.484086 30.0216 0 25.8763 0 20C0 14.1237 0.484086 9.97836 1.01786 7.19371Z" fill="#108DE9"/>
<circle cx="20" cy="20" r="12" fill="white"/>
<path d="M13 16.5702C13 16.3811 13.271 16.2663 13.4247 16.3763C14.2454 16.9631 16.3024 17.8488 20 16C24.5671 13.7164 26.6312 15.6046 26.9544 15.9486C26.9855 15.9817 27 16.0247 27 16.0702V23.5172C27 23.6953 26.7625 23.8088 26.6089 23.7185C25.8117 23.2497 23.7492 22.5003 20 24C15.5005 25.7998 13.4305 24.3603 13.0611 24.0541C13.0203 24.0203 13 23.9702 13 23.9172V16.5702Z" fill="#108DE9"/>
</svg>
