<svg width="40" height="40" viewBox="0 0 40 40" fill="none" xmlns="http://www.w3.org/2000/svg">
<path d="M1.01786 7.19371C1.63101 3.99499 4.00041 1.64743 7.19867 1.03186C10.0006 0.492581 14.1587 0 20 0C25.6336 0 29.7015 0.458173 32.4973 0.974534C35.8859 1.60039 38.3812 4.11911 39.0102 7.50711C39.5328 10.3217 40 14.4032 40 20C40 25.5968 39.5328 29.6783 39.0102 32.4929C38.3812 35.8809 35.8859 38.3996 32.4973 39.0255C29.7015 39.5418 25.6336 40 20 40C14.1587 40 10.0006 39.5074 7.19867 38.9681C4.00041 38.3526 1.63101 36.005 1.01786 32.8063C0.484086 30.0216 0 25.8763 0 20C0 14.1237 0.484086 9.97836 1.01786 7.19371Z" fill="#FBAF18"/>
<path fill-rule="evenodd" clip-rule="evenodd" d="M11.536 21.5C14.0076 26.3073 18.1504 29.4901 20 29.5C21.8495 29.5099 25.9923 26.3073 28.4639 21.5C29.5611 19.3659 30.0396 17.3077 30.2457 15.8134C30.4553 14.2939 29.9935 12.7396 28.6327 12.0317C27.1708 11.2713 24.5633 10.5 20 10.5C15.4366 10.5 12.8291 11.2713 11.3672 12.0317C10.0064 12.7396 9.54464 14.2939 9.75421 15.8134C9.96029 17.3077 10.4388 19.3659 11.536 21.5ZM24.5762 16.4802C24.8413 16.1619 24.7983 15.689 24.4801 15.4239C24.1619 15.1587 23.689 15.2017 23.4238 15.5199L18.9496 20.889L16.5303 18.4697C16.2374 18.1768 15.7626 18.1768 15.4697 18.4697C15.1768 18.7626 15.1768 19.2375 15.4697 19.5303L18.4697 22.5303C18.6187 22.6793 18.8235 22.7588 19.034 22.7492C19.2445 22.7397 19.4413 22.642 19.5762 22.4802L24.5762 16.4802Z" fill="white"/>
</svg>
