<svg width="40" height="40" viewBox="0 0 40 40" fill="none" xmlns="http://www.w3.org/2000/svg">
<path d="M1.01786 7.19371C1.63101 3.99499 4.00041 1.64743 7.19867 1.03186C10.0006 0.492581 14.1587 0 20 0C25.6336 0 29.7015 0.458173 32.4973 0.974534C35.8859 1.60039 38.3812 4.11911 39.0102 7.50711C39.5328 10.3217 40 14.4032 40 20C40 25.5968 39.5328 29.6783 39.0102 32.4929C38.3812 35.8809 35.8859 38.3996 32.4973 39.0255C29.7015 39.5418 25.6336 40 20 40C14.1587 40 10.0006 39.5074 7.19867 38.9681C4.00041 38.3526 1.63101 36.005 1.01786 32.8063C0.484086 30.0216 0 25.8763 0 20C0 14.1237 0.484086 9.97836 1.01786 7.19371Z" fill="#31B057"/>
<path d="M18.2928 23.1707V22.2764C18.2928 21.8428 18.3379 21.4453 18.4283 21.084C18.5186 20.7046 18.6541 20.3433 18.8348 20C19.0335 19.6567 19.2865 19.3135 19.5936 18.9702C19.9188 18.6269 20.3163 18.2565 20.786 17.8591C21.2738 17.4255 21.6532 17.028 21.9242 16.6667C22.1952 16.3053 22.3307 15.8627 22.3307 15.3388C22.3307 14.7967 22.123 14.318 21.7074 13.9024C21.3099 13.4869 20.7589 13.2791 20.0543 13.2791C19.6749 13.2791 19.3316 13.3424 19.0245 13.4688C18.7174 13.5953 18.4463 13.7669 18.2115 13.9837C17.9766 14.2005 17.7779 14.4444 17.6153 14.7154C17.4707 14.9865 17.3623 15.2665 17.2901 15.5556L14.1735 14.2547C14.3181 13.7489 14.5439 13.243 14.851 12.7371C15.1762 12.2313 15.5737 11.7796 16.0435 11.3821C16.5313 10.9666 17.1004 10.6323 17.7508 10.3794C18.4012 10.1265 19.1329 10 19.9459 10C20.8131 10 21.608 10.1355 22.3307 10.4065C23.0534 10.6594 23.6677 11.0208 24.1735 11.4905C24.6975 11.9422 25.104 12.4842 25.393 13.1165C25.6821 13.7489 25.8267 14.4264 25.8267 15.1491C25.8267 15.673 25.7634 16.1427 25.637 16.5583C25.5105 16.9738 25.3388 17.3622 25.122 17.7236C24.9052 18.0849 24.6523 18.4282 24.3632 18.7534C24.0742 19.0605 23.767 19.3677 23.4418 19.6748C23.1347 19.9639 22.8727 20.2258 22.6559 20.4607C22.4572 20.6956 22.2946 20.9304 22.1681 21.1653C22.0597 21.3821 21.9784 21.617 21.9242 21.8699C21.87 22.1229 21.8429 22.4119 21.8429 22.7371V23.1707H18.2928ZM20.0272 30C19.3768 30 18.8258 29.7742 18.3741 29.3225C17.9224 28.8528 17.6966 28.2927 17.6966 27.6423C17.6966 26.9919 17.9224 26.4408 18.3741 25.9892C18.8258 25.5375 19.3768 25.3117 20.0272 25.3117C20.6776 25.3117 21.2286 25.5375 21.6803 25.9892C22.1501 26.4408 22.3849 26.9919 22.3849 27.6423C22.3849 28.2927 22.1501 28.8528 21.6803 29.3225C21.2286 29.7742 20.6776 30 20.0272 30Z" fill="white"/>
</svg>
