<svg width="40" height="40" viewBox="0 0 40 40" fill="none" xmlns="http://www.w3.org/2000/svg">
<path d="M1.01786 7.19371C1.63101 3.99499 4.00041 1.64743 7.19867 1.03186C10.0006 0.492581 14.1587 0 20 0C25.6336 0 29.7015 0.458173 32.4973 0.974534C35.8859 1.60039 38.3812 4.11911 39.0102 7.50711C39.5328 10.3217 40 14.4032 40 20C40 25.5968 39.5328 29.6783 39.0102 32.4929C38.3812 35.8809 35.8859 38.3996 32.4973 39.0255C29.7015 39.5418 25.6336 40 20 40C14.1587 40 10.0006 39.5074 7.19867 38.9681C4.00041 38.3526 1.63101 36.005 1.01786 32.8063C0.484086 30.0216 0 25.8763 0 20C0 14.1237 0.484086 9.97836 1.01786 7.19371Z" fill="#1F75E1"/>
<path d="M17.4604 9.38142C18.6525 7.53953 21.3475 7.53953 22.5396 9.38142C23.2219 10.4357 24.4847 10.9588 25.7127 10.6958C27.8581 10.2363 29.7637 12.1419 29.3042 14.2873C29.0412 15.5153 29.5643 16.7781 30.6186 17.4604C32.4605 18.6525 32.4605 21.3475 30.6186 22.5396C29.5643 23.2219 29.0412 24.4847 29.3042 25.7127C29.7637 27.8581 27.8581 29.7637 25.7127 29.3042C24.4847 29.0412 23.2219 29.5643 22.5396 30.6186C21.3475 32.4605 18.6525 32.4605 17.4604 30.6186C16.7781 29.5643 15.5153 29.0412 14.2873 29.3042C12.1419 29.7637 10.2363 27.8581 10.6958 25.7127C10.9588 24.4847 10.4357 23.2219 9.38142 22.5396C7.53953 21.3475 7.53953 18.6525 9.38142 17.4604C10.4357 16.7781 10.9588 15.5153 10.6958 14.2873C10.2363 12.1419 12.1419 10.2363 14.2873 10.6958C15.5153 10.9588 16.7781 10.4357 17.4604 9.38142Z" fill="white"/>
<path d="M15.4861 20.1512L18.3946 23.0597L24.514 16.9403" stroke="#1F75E1" stroke-width="1.5"/>
</svg>
