<svg width="34" height="34" viewBox="0 0 34 34" fill="none" xmlns="http://www.w3.org/2000/svg">
<circle opacity="0.25" cx="17" cy="17" r="17" fill="#1F2D3D"/>
<path d="M20.3333 8.66669H13.6667C13.0036 8.66669 12.3678 8.93008 11.8989 9.39892C11.4301 9.86776 11.1667 10.5036 11.1667 11.1667V24.5C11.1661 24.6469 11.2043 24.7913 11.2775 24.9186C11.3507 25.0459 11.4562 25.1516 11.5833 25.225C11.71 25.2982 11.8537 25.3367 12 25.3367C12.1463 25.3367 12.29 25.2982 12.4167 25.225L17 22.575L21.5833 25.225C21.7103 25.297 21.854 25.3344 22 25.3334C22.146 25.3344 22.2897 25.297 22.4167 25.225C22.5438 25.1516 22.6494 25.0459 22.7225 24.9186C22.7957 24.7913 22.8339 24.6469 22.8333 24.5V11.1667C22.8333 10.5036 22.57 9.86776 22.1011 9.39892C21.6323 8.93008 20.9964 8.66669 20.3333 8.66669ZM21.1667 23.0584L17.4167 20.8917C17.29 20.8185 17.1463 20.78 17 20.78C16.8537 20.78 16.71 20.8185 16.5833 20.8917L12.8333 23.0584V11.1667C12.8333 10.9457 12.9211 10.7337 13.0774 10.5774C13.2337 10.4212 13.4457 10.3334 13.6667 10.3334H20.3333C20.5544 10.3334 20.7663 10.4212 20.9226 10.5774C21.0789 10.7337 21.1667 10.9457 21.1667 11.1667V23.0584Z" fill="#EFF2F7"/>
</svg>
