<svg width="34" height="34" viewBox="0 0 34 34" fill="none" xmlns="http://www.w3.org/2000/svg">
<circle opacity="0.55" cx="17" cy="17" r="17" fill="#1F2D3D"/>
<path fill-rule="evenodd" clip-rule="evenodd" d="M13.6667 8.66669H20.3334C20.9964 8.66669 21.6323 8.93008 22.1011 9.39892C22.57 9.86776 22.8334 10.5036 22.8334 11.1667V24.5C22.8339 24.6469 22.7957 24.7913 22.7225 24.9186C22.6494 25.0459 22.5439 25.1516 22.4167 25.225C22.2897 25.297 22.146 25.3344 22 25.3334C21.854 25.3344 21.7104 25.297 21.5834 25.225L17 22.575L12.4167 25.225C12.29 25.2982 12.1463 25.3367 12 25.3367C11.8537 25.3367 11.71 25.2982 11.5834 25.225C11.4562 25.1516 11.3507 25.0459 11.2775 24.9186C11.2043 24.7913 11.1661 24.6469 11.1667 24.5V11.1667C11.1667 10.5036 11.4301 9.86776 11.8989 9.39892C12.3678 8.93008 13.0037 8.66669 13.6667 8.66669ZM21.1667 23.0583L21.1667 23.0584V11.1667C21.1667 11.1655 21.1667 11.1643 21.1667 11.1631V23.0583Z" fill="white"/>
</svg>
