<svg width="40" height="40" viewBox="0 0 40 40" fill="none" xmlns="http://www.w3.org/2000/svg">
<circle cx="20" cy="20" r="20" fill="#EFF2F7"/>
<path d="M12.505 26.6598C12.5031 26.4959 12.5526 26.3356 12.6466 26.2014L16.4466 20.4514C16.5362 20.3154 16.584 20.156 16.584 19.9931C16.584 19.8302 16.5362 19.6708 16.4466 19.5348L12.6466 13.7848C12.548 13.6318 12.5022 13.4507 12.5162 13.2692C12.5302 13.0877 12.6033 12.9158 12.7243 12.7797C12.8452 12.6436 13.0074 12.5509 13.186 12.5157C13.3646 12.4805 13.5498 12.5048 13.7133 12.5848L27.0466 19.2514C27.1831 19.3214 27.2977 19.4276 27.3777 19.5585C27.4577 19.6893 27.5 19.8397 27.5 19.9931C27.5 20.1465 27.4577 20.2969 27.3777 20.4277C27.2977 20.5586 27.1831 20.6648 27.0466 20.7348L13.7133 27.4014C13.5489 27.4845 13.3616 27.5108 13.1806 27.4761C12.9997 27.4414 12.8354 27.3478 12.7133 27.2098C12.5793 27.0579 12.5053 26.8623 12.505 26.6598Z" fill="#C0CCDA"/>
</svg>
