<svg width="25" height="25" viewBox="0 0 25 25" fill="none" xmlns="http://www.w3.org/2000/svg">
<path d="M22.0222 7.12222L18.8778 3.97778C18.2533 3.35248 17.406 3.00078 16.5222 3H9.47778C8.59402 3.00078 7.74674 3.35248 7.12222 3.97778L3.97778 7.12222C3.35248 7.74674 3.00078 8.59402 3 9.47778V19.6667C3 20.5507 3.35119 21.3986 3.97631 22.0237C4.60143 22.6488 5.44928 23 6.33333 23H19.6667C20.5507 23 21.3986 22.6488 22.0237 22.0237C22.6488 21.3986 23 20.5507 23 19.6667V9.47778C22.9992 8.59402 22.6475 7.74674 22.0222 7.12222Z" fill="#094AAC"/>
<path fill-rule="evenodd" clip-rule="evenodd" d="M9 12C9.55228 12 10 12.4477 10 13C10 14.6569 11.3431 16 13 16C14.6569 16 16 14.6569 16 13C16 12.4477 16.4477 12 17 12C17.5523 12 18 12.4477 18 13C18 15.7614 15.7614 18 13 18C10.2386 18 8 15.7614 8 13C8 12.4477 8.44772 12 9 12Z" fill="#E5E9F2"/>
<path d="M8.85355 5.14645C8.94732 5.05268 9.0745 5 9.20711 5H16.7929C16.9255 5 17.0527 5.05268 17.1464 5.14645L19.1464 7.14645C19.4614 7.46143 19.2383 8 18.7929 8H7.20711C6.76165 8 6.53857 7.46143 6.85355 7.14645L8.85355 5.14645Z" fill="#E5E9F2"/>
</svg>
