<svg width="36" height="36" viewBox="0 0 36 36" fill="none" xmlns="http://www.w3.org/2000/svg">
<circle cx="18" cy="18" r="18" fill="#FFCB3F"/>
<path d="M24.2381 22.6273H27.2857V25C27.2857 25.5523 26.838 26 26.2857 26H25.2381C24.6858 26 24.2381 25.5523 24.2381 25V22.6273Z" fill="#C98C13"/>
<path d="M8.99999 22.6273H12.0476V25C12.0476 25.5523 11.5999 26 11.0476 26H9.99999C9.44771 26 8.99999 25.5523 8.99999 25V22.6273Z" fill="#C98C13"/>
<circle cx="15.0952" cy="15.7701" r="2.28571" fill="#C98C13"/>
<path d="M9.7619 10C9.34111 10 8.99999 10.3411 8.99999 10.7619V22.6273L27.2857 22.6273V16.532C27.2857 14.8489 25.9212 13.4844 24.2381 13.4844H18.7928C18.4338 13.4844 18.1429 13.7754 18.1429 14.1343V18.1678C18.1429 18.5267 17.8519 18.8177 17.4929 18.8177H12.6976C12.3386 18.8177 12.0476 18.5267 12.0476 18.1678L12.0476 10.7619C12.0476 10.3411 11.7065 10 11.2857 10H9.7619Z" fill="white"/>
</svg>
