<svg width="36" height="36" viewBox="0 0 36 36" fill="none" xmlns="http://www.w3.org/2000/svg">
<circle cx="18" cy="18" r="18" fill="#31B057"/>
<path d="M29.1195 21.2045C28.8368 19.5083 27.3291 15.4328 26.2454 12.6529C25.8685 11.687 25.1146 10.9567 24.1958 10.6033C24.1487 10.4619 24.078 10.3206 24.0309 10.1792C23.7247 9.35469 22.853 8.88353 22.0049 9.02488L21.6751 9.07199C20.8034 9.21334 20.1673 9.96721 20.1438 10.8389C20.1438 11.0509 20.1202 11.2865 20.1202 11.5221C19.5784 12.1346 19.225 12.912 19.1779 13.7601C18.8245 13.5716 18.424 13.4538 17.9764 13.4538C17.5524 13.4538 17.1283 13.5716 16.7749 13.7601C16.7278 12.912 16.398 12.111 15.8326 11.5221C15.8326 11.2865 15.8326 11.0509 15.809 10.8389C15.7855 9.96721 15.1494 9.21334 14.2778 9.07199L13.9951 9.02488C13.1234 8.88353 12.2753 9.35469 11.969 10.1792C11.9219 10.3206 11.8512 10.4619 11.8041 10.6033C10.8854 10.9802 10.1315 11.687 9.75455 12.6529C8.69442 15.4092 7.18669 19.4848 6.88043 21.2045C6.40926 23.8902 8.22326 26.4581 10.9325 26.9292C13.5946 27.3768 16.0917 25.6571 16.6336 23.0185C17.0341 23.2541 17.5052 23.419 18 23.419C18.4947 23.419 18.9659 23.2777 19.3664 23.0185C19.9082 25.6571 22.4289 27.3768 25.0675 26.9292C27.7767 26.4581 29.5907 23.8902 29.1195 21.2045ZM11.757 25.1388C10.0608 25.1388 8.67086 23.7489 8.67086 22.0526C8.67086 20.3564 10.0608 18.9665 11.757 18.9665C13.4532 18.9665 14.8432 20.3564 14.8432 22.0526C14.8667 23.7489 13.4768 25.1388 11.757 25.1388ZM18 21.9584C17.3403 21.9584 16.7985 21.4166 16.7985 20.7569C16.7985 20.0973 17.3403 19.5555 18 19.5555C18.6596 19.5555 19.2015 20.0973 19.2015 20.7569C19.2015 21.4166 18.6596 21.9584 18 21.9584ZM24.2429 25.1388C22.5467 25.1388 21.1568 23.7489 21.1568 22.0526C21.1568 20.3564 22.5467 18.9665 24.2429 18.9665C25.9391 18.9665 27.3291 20.3564 27.3291 22.0526C27.3291 23.7489 25.9391 25.1388 24.2429 25.1388Z" fill="white"/>
</svg>
