<svg width="24" height="24" viewBox="0 0 24 24" fill="none" xmlns="http://www.w3.org/2000/svg">
<path d="M18.9272 2.71271H16.3572V2.57812C16.3572 1.15649 15.2007 0 13.7791 0H10.2107C8.78906 0 7.63257 1.15649 7.63257 2.57812V2.71271H5.0625C4.28595 2.71271 3.65625 3.34222 3.65625 4.11896V5.19086C3.65625 5.44977 3.86609 5.65961 4.125 5.65961H19.8647C20.1237 5.65961 20.3335 5.44977 20.3335 5.19086V4.11896C20.3335 3.34222 19.704 2.71271 18.9272 2.71271ZM9.03882 2.57812C9.03882 1.93195 9.56451 1.40625 10.2107 1.40625H13.7791C14.4252 1.40625 14.9509 1.93195 14.9509 2.57812V2.71271H9.03882V2.57812Z" fill="#8492A6"/>
<path d="M4.26324 7.06586L5.39941 23.3458C5.42523 23.7142 5.73157 24 6.10089 24H17.889C18.2584 24 18.5647 23.7142 18.5903 23.3458L19.7263 7.06586H4.26324ZM9.21222 21.6086C9.20215 21.6092 9.19189 21.6094 9.18182 21.6094C8.80737 21.6094 8.49591 21.3138 8.47998 20.9361L8.01123 9.92047C7.99457 9.53247 8.29578 9.20453 8.68378 9.18805C9.07196 9.17212 9.39972 9.47278 9.4162 9.86078L9.88495 20.8764C9.90143 21.2644 9.60022 21.5922 9.21222 21.6086ZM12.698 20.9062C12.698 21.2946 12.3832 21.6094 11.9949 21.6094C11.6065 21.6094 11.2917 21.2946 11.2917 20.9062V9.89062C11.2917 9.50226 11.6065 9.1875 11.9949 9.1875C12.3832 9.1875 12.698 9.50226 12.698 9.89062V20.9062ZM15.5099 20.9361C15.4938 21.314 15.1824 21.6094 14.8079 21.6094C14.7979 21.6094 14.7876 21.6092 14.7775 21.6088C14.3895 21.5923 14.0883 21.2644 14.1048 20.8764L14.5735 9.86078C14.5902 9.47278 14.9185 9.17175 15.306 9.18823C15.694 9.20471 15.9952 9.53247 15.9787 9.92047L15.5099 20.9361Z" fill="#8492A6"/>
</svg>
