<svg width="22" height="22" viewBox="0 0 22 22" fill="none" xmlns="http://www.w3.org/2000/svg">
<path d="M8.88367 2.15118C9.8771 0.616272 12.1229 0.616272 13.1163 2.15118C13.685 3.02975 14.7373 3.46563 15.7606 3.24647C17.5484 2.86358 19.1364 4.45161 18.7535 6.23941C18.5344 7.26273 18.9703 8.31504 19.8488 8.88367C21.3837 9.8771 21.3837 12.1229 19.8488 13.1163C18.9703 13.685 18.5344 14.7373 18.7535 15.7606C19.1364 17.5484 17.5484 19.1364 15.7606 18.7535C14.7373 18.5344 13.685 18.9703 13.1163 19.8488C12.1229 21.3837 9.8771 21.3837 8.88367 19.8488C8.31504 18.9703 7.26273 18.5344 6.23941 18.7535C4.45161 19.1364 2.86358 17.5484 3.24647 15.7606C3.46563 14.7373 3.02975 13.685 2.15118 13.1163C0.616272 12.1229 0.616272 9.8771 2.15118 8.88367C3.02975 8.31504 3.46563 7.26273 3.24647 6.23941C2.86358 4.45161 4.45161 2.86358 6.23941 3.24647C7.26273 3.46563 8.31504 3.02975 8.88367 2.15118Z" fill="#1F75E1" stroke="white" stroke-width="2"/>
<path d="M6.48607 11.1512L9.39455 14.0597L15.514 7.94028" stroke="white" stroke-width="1.5"/>
</svg>
